<svg width="123" height="137" viewBox="0 0 123 137" fill="none" xmlns="http://www.w3.org/2000/svg">
<path d="M2.85938 0.25H9.04688C10.2865 0.25 11.3802 0.505208 12.3281 1.01562C13.2865 1.51562 14.0365 2.25521 14.5781 3.23438C15.1198 4.20312 15.3906 5.39583 15.3906 6.8125C15.3906 7.90625 15.1875 8.90104 14.7812 9.79688C14.3854 10.6927 13.8438 11.4271 13.1562 12C12.4792 12.5729 11.7188 12.9219 10.875 13.0469L10.4531 13.25H3.125L3.09375 12.4531H9.65625C10.75 12.4531 11.6615 12.1771 12.3906 11.625C13.1198 11.0729 13.6667 10.3698 14.0312 9.51562C14.4062 8.65104 14.5938 7.75 14.5938 6.8125C14.5938 5.60417 14.3646 4.57292 13.9062 3.71875C13.4583 2.85417 12.8177 2.19271 11.9844 1.73438C11.151 1.26562 10.1719 1.03125 9.04688 1.03125H3.67188V23H2.85938V0.25ZM15.3438 23L10.0625 12.9844L11 12.9688L16.2031 22.7812V23H15.3438ZM26.0469 23.3438C25.1615 23.3438 24.3333 23.1823 23.5625 22.8594C22.8021 22.5365 22.1354 22.0521 21.5625 21.4062C20.9896 20.75 20.5417 19.9323 20.2188 18.9531C19.8958 17.9635 19.7344 16.8125 19.7344 15.5V13.5938C19.7344 12.2812 19.8906 11.1354 20.2031 10.1562C20.5156 9.17708 20.9479 8.36458 21.5 7.71875C22.0625 7.07292 22.7083 6.58854 23.4375 6.26562C24.1667 5.94271 24.9427 5.78125 25.7656 5.78125C26.5781 5.78125 27.3177 5.91146 27.9844 6.17188C28.651 6.43229 29.2292 6.83854 29.7188 7.39062C30.2083 7.93229 30.5833 8.64062 30.8438 9.51562C31.1042 10.3906 31.2344 11.4479 31.2344 12.6875V13.9375H20.2656V13.1406H30.4219V12.6719C30.4219 11.3281 30.2292 10.2031 29.8438 9.29688C29.4688 8.39062 28.9323 7.71354 28.2344 7.26562C27.5365 6.80729 26.7135 6.57812 25.7656 6.57812C24.9844 6.57812 24.276 6.73438 23.6406 7.04688C23.0052 7.34896 22.4531 7.79688 21.9844 8.39062C21.526 8.98438 21.1719 9.71875 20.9219 10.5938C20.6719 11.4688 20.5469 12.4688 20.5469 13.5938V15.5C20.5469 16.6562 20.6823 17.6771 20.9531 18.5625C21.2344 19.4375 21.625 20.1719 22.125 20.7656C22.625 21.349 23.2083 21.7917 23.875 22.0938C24.5521 22.3854 25.2812 22.5312 26.0625 22.5312C26.875 22.5312 27.6354 22.4115 28.3438 22.1719C29.0521 21.9323 29.6927 21.4792 30.2656 20.8125L30.7188 21.2969C30.4062 21.6927 30.0312 22.0469 29.5938 22.3594C29.1562 22.6719 28.6458 22.9115 28.0625 23.0781C27.4792 23.2552 26.8073 23.3438 26.0469 23.3438ZM44.0781 18.8594C44.0781 18.2865 43.9583 17.7552 43.7188 17.2656C43.4792 16.7656 43.0469 16.2917 42.4219 15.8438C41.8073 15.3958 40.9167 14.9583 39.75 14.5312C38.9062 14.2188 38.1667 13.8958 37.5312 13.5625C36.9062 13.2292 36.3802 12.875 35.9531 12.5C35.5365 12.125 35.224 11.7188 35.0156 11.2812C34.8073 10.8438 34.7031 10.3646 34.7031 9.84375C34.7031 9.25 34.8125 8.70833 35.0312 8.21875C35.25 7.71875 35.5677 7.28646 35.9844 6.92188C36.401 6.55729 36.9062 6.27604 37.5 6.07812C38.0938 5.88021 38.7656 5.78125 39.5156 5.78125C40.5885 5.78125 41.5052 5.95312 42.2656 6.29688C43.0365 6.64062 43.6302 7.14062 44.0469 7.79688C44.4635 8.45312 44.6719 9.26042 44.6719 10.2188H43.8438C43.8438 9.40625 43.6771 8.73438 43.3438 8.20312C43.0104 7.66146 42.5208 7.25521 41.875 6.98438C41.2396 6.71354 40.4531 6.57812 39.5156 6.57812C38.5677 6.57812 37.7969 6.73958 37.2031 7.0625C36.6198 7.375 36.1875 7.77604 35.9062 8.26562C35.6354 8.75521 35.5 9.26562 35.5 9.79688C35.5 10.2031 35.5729 10.5833 35.7188 10.9375C35.875 11.2917 36.125 11.6354 36.4688 11.9688C36.8125 12.2917 37.276 12.6094 37.8594 12.9219C38.4427 13.2344 39.1667 13.5469 40.0312 13.8594C41.2083 14.2865 42.151 14.7448 42.8594 15.2344C43.5781 15.7135 44.0938 16.25 44.4062 16.8438C44.7292 17.4375 44.8906 18.1146 44.8906 18.875C44.8906 19.5312 44.7708 20.1302 44.5312 20.6719C44.3021 21.2135 43.9635 21.6823 43.5156 22.0781C43.0781 22.474 42.5469 22.7812 41.9219 23C41.2969 23.2083 40.599 23.3125 39.8281 23.3125C38.6615 23.3125 37.6719 23.1146 36.8594 22.7188C36.0573 22.3229 35.4479 21.7917 35.0312 21.125C34.625 20.4479 34.4219 19.7031 34.4219 18.8906H35.2344C35.2865 19.8594 35.5469 20.6042 36.0156 21.125C36.4948 21.6458 37.0781 22.0104 37.7656 22.2188C38.4531 22.4167 39.1406 22.5156 39.8281 22.5156C40.724 22.5156 41.4844 22.3594 42.1094 22.0469C42.7448 21.7344 43.2292 21.3021 43.5625 20.75C43.9062 20.1979 44.0781 19.5677 44.0781 18.8594ZM54.6719 23.3438C53.7865 23.3438 52.9583 23.1823 52.1875 22.8594C51.4271 22.5365 50.7604 22.0521 50.1875 21.4062C49.6146 20.75 49.1667 19.9323 48.8438 18.9531C48.5208 17.9635 48.3594 16.8125 48.3594 15.5V13.5938C48.3594 12.2812 48.5156 11.1354 48.8281 10.1562C49.1406 9.17708 49.5729 8.36458 50.125 7.71875C50.6875 7.07292 51.3333 6.58854 52.0625 6.26562C52.7917 5.94271 53.5677 5.78125 54.3906 5.78125C55.2031 5.78125 55.9427 5.91146 56.6094 6.17188C57.276 6.43229 57.8542 6.83854 58.3438 7.39062C58.8333 7.93229 59.2083 8.64062 59.4688 9.51562C59.7292 10.3906 59.8594 11.4479 59.8594 12.6875V13.9375H48.8906V13.1406H59.0469V12.6719C59.0469 11.3281 58.8542 10.2031 58.4688 9.29688C58.0938 8.39062 57.5573 7.71354 56.8594 7.26562C56.1615 6.80729 55.3385 6.57812 54.3906 6.57812C53.6094 6.57812 52.901 6.73438 52.2656 7.04688C51.6302 7.34896 51.0781 7.79688 50.6094 8.39062C50.151 8.98438 49.7969 9.71875 49.5469 10.5938C49.2969 11.4688 49.1719 12.4688 49.1719 13.5938V15.5C49.1719 16.6562 49.3073 17.6771 49.5781 18.5625C49.8594 19.4375 50.25 20.1719 50.75 20.7656C51.25 21.349 51.8333 21.7917 52.5 22.0938C53.1771 22.3854 53.9062 22.5312 54.6875 22.5312C55.5 22.5312 56.2604 22.4115 56.9688 22.1719C57.6771 21.9323 58.3177 21.4792 58.8906 20.8125L59.3438 21.2969C59.0312 21.6927 58.6562 22.0469 58.2188 22.3594C57.7812 22.6719 57.2708 22.9115 56.6875 23.0781C56.1042 23.2552 55.4323 23.3438 54.6719 23.3438ZM64.75 9.04688V23H63.9219V6.09375H64.75V9.04688ZM70.375 5.92188L70.2656 6.65625C70.1302 6.61458 69.9844 6.58854 69.8281 6.57812C69.6719 6.55729 69.5052 6.54688 69.3281 6.54688C68.5469 6.54688 67.8594 6.74479 67.2656 7.14062C66.6719 7.52604 66.1771 8.0625 65.7812 8.75C65.3854 9.42708 65.0885 10.2135 64.8906 11.1094C64.6927 12.0052 64.5938 12.9583 64.5938 13.9688L64.1094 14C64.1094 12.8125 64.2135 11.7188 64.4219 10.7188C64.6406 9.71875 64.9688 8.84896 65.4062 8.10938C65.8438 7.36979 66.3906 6.79688 67.0469 6.39062C67.7031 5.98438 68.474 5.78125 69.3594 5.78125C69.5677 5.78125 69.7552 5.79167 69.9219 5.8125C70.099 5.83333 70.25 5.86979 70.375 5.92188ZM78.0156 22.0469L83.2188 6.09375H84.0781L78.5156 23H77.7812L78.0156 22.0469ZM73.0781 6.09375L78.2969 22.0469L78.5 23H77.75L72.2031 6.09375H73.0781ZM92.4844 23.3438C91.599 23.3438 90.7708 23.1823 90 22.8594C89.2396 22.5365 88.5729 22.0521 88 21.4062C87.4271 20.75 86.9792 19.9323 86.6562 18.9531C86.3333 17.9635 86.1719 16.8125 86.1719 15.5V13.5938C86.1719 12.2812 86.3281 11.1354 86.6406 10.1562C86.9531 9.17708 87.3854 8.36458 87.9375 7.71875C88.5 7.07292 89.1458 6.58854 89.875 6.26562C90.6042 5.94271 91.3802 5.78125 92.2031 5.78125C93.0156 5.78125 93.7552 5.91146 94.4219 6.17188C95.0885 6.43229 95.6667 6.83854 96.1562 7.39062C96.6458 7.93229 97.0208 8.64062 97.2812 9.51562C97.5417 10.3906 97.6719 11.4479 97.6719 12.6875V13.9375H86.7031V13.1406H96.8594V12.6719C96.8594 11.3281 96.6667 10.2031 96.2812 9.29688C95.9062 8.39062 95.3698 7.71354 94.6719 7.26562C93.974 6.80729 93.151 6.57812 92.2031 6.57812C91.4219 6.57812 90.7135 6.73438 90.0781 7.04688C89.4427 7.34896 88.8906 7.79688 88.4219 8.39062C87.9635 8.98438 87.6094 9.71875 87.3594 10.5938C87.1094 11.4688 86.9844 12.4688 86.9844 13.5938V15.5C86.9844 16.6562 87.1198 17.6771 87.3906 18.5625C87.6719 19.4375 88.0625 20.1719 88.5625 20.7656C89.0625 21.349 89.6458 21.7917 90.3125 22.0938C90.9896 22.3854 91.7188 22.5312 92.5 22.5312C93.3125 22.5312 94.0729 22.4115 94.7812 22.1719C95.4896 21.9323 96.1302 21.4792 96.7031 20.8125L97.1562 21.2969C96.8438 21.6927 96.4688 22.0469 96.0312 22.3594C95.5938 22.6719 95.0833 22.9115 94.5 23.0781C93.9167 23.2552 93.2448 23.3438 92.4844 23.3438ZM20.0781 48.9844L18.625 58.1719C17.9375 58.9948 17.0781 59.6354 16.0469 60.0938C15.0156 60.5521 13.9323 60.8698 12.7969 61.0469C11.6719 61.2344 10.6042 61.3177 9.59375 61.2969C8.02083 61.276 6.6875 60.9635 5.59375 60.3594C4.5 59.7552 3.625 58.9375 2.96875 57.9062C2.32292 56.875 1.88542 55.7083 1.65625 54.4062C1.4375 53.0938 1.41667 51.724 1.59375 50.2969L1.78125 48.9688C1.97917 47.5 2.35938 46.099 2.92188 44.7656C3.49479 43.4323 4.23958 42.25 5.15625 41.2188C6.08333 40.1771 7.17708 39.3594 8.4375 38.7656C9.70833 38.1719 11.1458 37.8906 12.75 37.9219C14.3958 37.9427 15.7917 38.2552 16.9375 38.8594C18.0938 39.4635 18.9896 40.3333 19.625 41.4688C20.2604 42.5938 20.6302 43.9635 20.7344 45.5781L15.9844 45.5625C15.9219 44.8438 15.776 44.2135 15.5469 43.6719C15.3281 43.1198 14.9844 42.6875 14.5156 42.375C14.0469 42.0521 13.4167 41.875 12.625 41.8438C11.6667 41.8021 10.8438 42 10.1562 42.4375C9.47917 42.8646 8.91146 43.4375 8.45312 44.1562C7.99479 44.8646 7.63542 45.6406 7.375 46.4844C7.11458 47.3281 6.92708 48.1406 6.8125 48.9219L6.625 50.3125C6.54167 51.0417 6.49479 51.8125 6.48438 52.625C6.48438 53.4375 6.58854 54.1979 6.79688 54.9062C7.00521 55.6146 7.36979 56.1979 7.89062 56.6562C8.42188 57.1042 9.16667 57.3385 10.125 57.3594C10.5729 57.3698 11.0052 57.3438 11.4219 57.2812C11.8385 57.2083 12.2396 57.0938 12.625 56.9375C13.0208 56.7812 13.401 56.5781 13.7656 56.3281L14.5 52.5312H10.5625L11.1875 48.9844H20.0781ZM21.8906 52.8125L21.9219 52.4844C22.0573 51.276 22.3542 50.1406 22.8125 49.0781C23.2708 48.0156 23.8802 47.0833 24.6406 46.2812C25.401 45.4792 26.2969 44.8542 27.3281 44.4062C28.3594 43.9583 29.5156 43.75 30.7969 43.7812C32.026 43.8021 33.0885 44.0469 33.9844 44.5156C34.8906 44.974 35.6302 45.599 36.2031 46.3906C36.776 47.1823 37.1823 48.0885 37.4219 49.1094C37.6615 50.1302 37.7292 51.2135 37.625 52.3594L37.5938 52.7031C37.4583 53.901 37.1562 55.026 36.6875 56.0781C36.2188 57.1302 35.6042 58.0521 34.8438 58.8438C34.0833 59.6354 33.1875 60.2552 32.1562 60.7031C31.125 61.1406 29.974 61.3438 28.7031 61.3125C27.4844 61.2917 26.4219 61.0521 25.5156 60.5938C24.6198 60.1354 23.8854 59.5156 23.3125 58.7344C22.7396 57.9531 22.3333 57.0573 22.0938 56.0469C21.8542 55.0365 21.7865 53.9583 21.8906 52.8125ZM26.6875 52.4844L26.6562 52.8125C26.625 53.2812 26.6094 53.7865 26.6094 54.3281C26.6198 54.8594 26.6927 55.3698 26.8281 55.8594C26.974 56.349 27.2135 56.75 27.5469 57.0625C27.8906 57.3646 28.3698 57.526 28.9844 57.5469C29.651 57.5677 30.2135 57.4323 30.6719 57.1406C31.1302 56.849 31.5052 56.4583 31.7969 55.9688C32.099 55.4688 32.3281 54.9323 32.4844 54.3594C32.651 53.7865 32.7604 53.2292 32.8125 52.6875L32.8438 52.3594C32.8854 51.901 32.901 51.401 32.8906 50.8594C32.8906 50.3073 32.8177 49.7865 32.6719 49.2969C32.5365 48.7969 32.2969 48.3906 31.9531 48.0781C31.6094 47.7552 31.1302 47.5833 30.5156 47.5625C29.849 47.5417 29.2812 47.6823 28.8125 47.9844C28.3542 48.2865 27.9792 48.6875 27.6875 49.1875C27.3958 49.6875 27.1719 50.2292 27.0156 50.8125C26.8594 51.3854 26.75 51.9427 26.6875 52.4844ZM48.9688 56.6719L51.1562 44.0938H55.9375L53 61H48.5469L48.9688 56.6719ZM49.9531 53.4531L51.2656 53.4219C51.151 54.3906 50.9323 55.3542 50.6094 56.3125C50.2969 57.2604 49.8594 58.1146 49.2969 58.875C48.7448 59.6354 48.0521 60.2396 47.2188 60.6875C46.3958 61.1354 45.4219 61.349 44.2969 61.3281C43.3698 61.3073 42.5885 61.1302 41.9531 60.7969C41.3177 60.4635 40.8073 60.0052 40.4219 59.4219C40.0469 58.8385 39.7917 58.1719 39.6562 57.4219C39.5312 56.6719 39.5104 55.875 39.5938 55.0312L41.4219 44.0938H46.1875L44.3281 55.0938C44.2969 55.4167 44.2969 55.724 44.3281 56.0156C44.3698 56.3073 44.4531 56.5625 44.5781 56.7812C44.7031 57 44.8802 57.1771 45.1094 57.3125C45.349 57.4375 45.6562 57.5052 46.0312 57.5156C46.875 57.5573 47.5625 57.3906 48.0938 57.0156C48.6354 56.6302 49.0521 56.125 49.3438 55.5C49.6458 54.8646 49.849 54.1823 49.9531 53.4531ZM63.0469 48.2969L60.8438 61H56.0781L59.0156 44.0938H63.4688L63.0469 48.2969ZM68.5625 43.9531L67.9688 48.5C67.6979 48.4583 67.4323 48.4219 67.1719 48.3906C66.9115 48.3594 66.6458 48.3438 66.375 48.3438C65.7812 48.3333 65.2448 48.4062 64.7656 48.5625C64.2969 48.7083 63.8854 48.9323 63.5312 49.2344C63.1875 49.5365 62.901 49.9115 62.6719 50.3594C62.4427 50.7969 62.2708 51.2969 62.1562 51.8594L61.2812 51.4219C61.3958 50.6198 61.5729 49.776 61.8125 48.8906C62.0521 47.9948 62.3854 47.1562 62.8125 46.375C63.25 45.5833 63.8073 44.9479 64.4844 44.4688C65.1719 43.9792 66.0156 43.7344 67.0156 43.7344C67.276 43.7344 67.5312 43.7552 67.7812 43.7969C68.0417 43.8385 68.3021 43.8906 68.5625 43.9531ZM74.6719 47.9062L72.4062 61H67.625L70.5625 44.0938H75.0312L74.6719 47.9062ZM73.3906 51.9531L72.2656 52C72.3698 50.9792 72.5885 49.974 72.9219 48.9844C73.2656 47.9948 73.7292 47.1042 74.3125 46.3125C74.9062 45.5104 75.6354 44.8802 76.5 44.4219C77.375 43.9531 78.3906 43.7344 79.5469 43.7656C80.4115 43.7865 81.125 43.9688 81.6875 44.3125C82.2604 44.6458 82.7083 45.0885 83.0312 45.6406C83.3646 46.1927 83.5833 46.8229 83.6875 47.5312C83.7917 48.2292 83.8073 48.9583 83.7344 49.7188L81.8438 61H77.0781L78.8594 50.2969C78.9219 49.8073 78.9271 49.3594 78.875 48.9531C78.8229 48.5469 78.6667 48.2135 78.4062 47.9531C78.1562 47.6927 77.7552 47.5573 77.2031 47.5469C76.5885 47.526 76.0625 47.651 75.625 47.9219C75.1875 48.1823 74.8177 48.5312 74.5156 48.9688C74.2135 49.4062 73.9688 49.8854 73.7812 50.4062C73.6042 50.9271 73.474 51.4427 73.3906 51.9531ZM83.0156 51.7031L81.5469 51.8438C81.651 50.8333 81.8646 49.849 82.1875 48.8906C82.5208 47.9219 82.9792 47.0469 83.5625 46.2656C84.1458 45.4844 84.8646 44.8698 85.7188 44.4219C86.5729 43.9635 87.5729 43.7448 88.7188 43.7656C89.6458 43.7969 90.4115 43.9948 91.0156 44.3594C91.6302 44.724 92.099 45.2135 92.4219 45.8281C92.7552 46.4427 92.974 47.1354 93.0781 47.9062C93.1823 48.6667 93.1875 49.4583 93.0938 50.2812L91.3125 61H86.5156L88.3125 50.2656C88.375 49.7865 88.3802 49.3438 88.3281 48.9375C88.276 48.5312 88.125 48.2031 87.875 47.9531C87.625 47.6927 87.224 47.5573 86.6719 47.5469C86.0885 47.526 85.5833 47.6406 85.1562 47.8906C84.7292 48.1302 84.3698 48.4531 84.0781 48.8594C83.7865 49.2656 83.5573 49.7188 83.3906 50.2188C83.224 50.7083 83.099 51.2031 83.0156 51.7031ZM102.594 61.3125C101.427 61.2917 100.37 61.0729 99.4219 60.6562C98.4844 60.2396 97.6927 59.6667 97.0469 58.9375C96.401 58.1979 95.9271 57.3385 95.625 56.3594C95.3229 55.3802 95.2135 54.3125 95.2969 53.1562L95.3594 52.5469C95.4844 51.3385 95.7708 50.2031 96.2188 49.1406C96.6771 48.0781 97.2865 47.1406 98.0469 46.3281C98.8073 45.5052 99.7031 44.8698 100.734 44.4219C101.776 43.9635 102.938 43.75 104.219 43.7812C105.396 43.8021 106.406 44.0417 107.25 44.5C108.104 44.9479 108.792 45.5573 109.312 46.3281C109.844 47.099 110.208 47.974 110.406 48.9531C110.604 49.9323 110.646 50.9688 110.531 52.0625L110.25 54.0625H97.0156L97.5156 50.9219L105.969 50.9375L106.062 50.5156C106.135 49.9844 106.109 49.5 105.984 49.0625C105.859 48.6146 105.625 48.2552 105.281 47.9844C104.938 47.7135 104.474 47.5677 103.891 47.5469C103.214 47.5365 102.646 47.6823 102.188 47.9844C101.729 48.2865 101.359 48.6927 101.078 49.2031C100.797 49.7031 100.578 50.25 100.422 50.8438C100.276 51.4271 100.167 51.9948 100.094 52.5469L100.031 53.1406C99.9896 53.6823 100.005 54.2083 100.078 54.7188C100.161 55.2292 100.318 55.6927 100.547 56.1094C100.786 56.5156 101.109 56.849 101.516 57.1094C101.932 57.3594 102.448 57.4948 103.062 57.5156C103.865 57.5365 104.609 57.3802 105.297 57.0469C105.995 56.7135 106.62 56.2656 107.172 55.7031L109.234 58.3125C108.755 59.0208 108.151 59.599 107.422 60.0469C106.693 60.4844 105.906 60.8073 105.062 61.0156C104.229 61.224 103.406 61.3229 102.594 61.3125ZM122.578 44.0938L121.969 47.5156H112.234L112.828 44.0938H122.578ZM115.781 39.9062H120.547L117.828 55.7344C117.786 56.099 117.786 56.401 117.828 56.6406C117.88 56.8802 117.995 57.0677 118.172 57.2031C118.359 57.3281 118.646 57.401 119.031 57.4219C119.26 57.4323 119.484 57.4271 119.703 57.4062C119.922 57.375 120.141 57.349 120.359 57.3281L120.016 60.9062C119.589 61.0417 119.151 61.1406 118.703 61.2031C118.266 61.2656 117.818 61.2969 117.359 61.2969C116.328 61.276 115.474 61.0625 114.797 60.6562C114.12 60.2396 113.63 59.6562 113.328 58.9062C113.036 58.1458 112.938 57.2604 113.031 56.25L115.781 39.9062ZM14.4062 93.5469C14.4062 92.8281 14.3021 92.1875 14.0938 91.625C13.8854 91.0625 13.5521 90.5573 13.0938 90.1094C12.6354 89.651 12.0312 89.2344 11.2812 88.8594C10.5312 88.474 9.61458 88.1042 8.53125 87.75C7.55208 87.4375 6.66146 87.1042 5.85938 86.75C5.06771 86.3958 4.39062 85.9844 3.82812 85.5156C3.27604 85.0469 2.84896 84.4896 2.54688 83.8438C2.24479 83.1875 2.09375 82.4062 2.09375 81.5C2.09375 80.625 2.25521 79.8438 2.57812 79.1562C2.90104 78.4688 3.34896 77.8854 3.92188 77.4062C4.50521 76.9271 5.1875 76.5625 5.96875 76.3125C6.76042 76.0625 7.61458 75.9375 8.53125 75.9375C9.79167 75.9375 10.901 76.1667 11.8594 76.625C12.8281 77.0833 13.5833 77.7656 14.125 78.6719C14.6771 79.5781 14.9531 80.7083 14.9531 82.0625H14.1562C14.1562 80.9271 13.9219 79.9635 13.4531 79.1719C12.9844 78.3698 12.3281 77.7604 11.4844 77.3438C10.6406 76.9271 9.65625 76.7188 8.53125 76.7188C7.32292 76.7188 6.29688 76.9427 5.45312 77.3906C4.61979 77.8281 3.98438 78.4062 3.54688 79.125C3.11979 79.8333 2.90625 80.599 2.90625 81.4219C2.90625 82.1719 3.03125 82.8281 3.28125 83.3906C3.54167 83.9531 3.91667 84.4479 4.40625 84.875C4.90625 85.3021 5.52083 85.6875 6.25 86.0312C6.97917 86.375 7.82292 86.7031 8.78125 87.0156C9.89583 87.3281 10.8594 87.6927 11.6719 88.1094C12.4844 88.5156 13.1562 88.9844 13.6875 89.5156C14.2188 90.0469 14.6146 90.6458 14.875 91.3125C15.1354 91.9688 15.2656 92.7031 15.2656 93.5156C15.2656 94.4531 15.0938 95.2812 14.75 96C14.4167 96.7188 13.9479 97.3229 13.3438 97.8125C12.7396 98.3021 12.0365 98.6771 11.2344 98.9375C10.4427 99.1875 9.59375 99.3125 8.6875 99.3125C7.86458 99.3125 7.03125 99.2031 6.1875 98.9844C5.35417 98.7552 4.58333 98.3802 3.875 97.8594C3.17708 97.3385 2.61458 96.6458 2.1875 95.7812C1.77083 94.9167 1.5625 93.8438 1.5625 92.5625H2.39062C2.39062 93.7188 2.58333 94.6823 2.96875 95.4531C3.36458 96.2135 3.875 96.8177 4.5 97.2656C5.13542 97.7135 5.81771 98.0365 6.54688 98.2344C7.28646 98.4219 8 98.5156 8.6875 98.5156C9.80208 98.5156 10.7865 98.3073 11.6406 97.8906C12.5052 97.4635 13.1823 96.8802 13.6719 96.1406C14.1615 95.3906 14.4062 94.526 14.4062 93.5469ZM20 85.7031V99H19.1719V82.0938H19.9844L20 85.7031ZM19.8594 89.0469L19.4219 88.1406C19.5052 87.3177 19.6979 86.526 20 85.7656C20.3021 85.0052 20.6979 84.3281 21.1875 83.7344C21.6771 83.1302 22.2448 82.6562 22.8906 82.3125C23.5365 81.9583 24.25 81.7812 25.0312 81.7812C25.7604 81.7812 26.4062 81.901 26.9688 82.1406C27.5417 82.3698 28.0208 82.7396 28.4062 83.25C28.7917 83.75 29.0833 84.401 29.2812 85.2031C29.4896 85.9948 29.5938 86.9479 29.5938 88.0625V99H28.7812V88.0469C28.7812 86.599 28.6146 85.4792 28.2812 84.6875C27.9583 83.8958 27.5104 83.3438 26.9375 83.0312C26.3646 82.7188 25.6979 82.5625 24.9375 82.5625C24.0521 82.5625 23.2917 82.8021 22.6562 83.2812C22.0312 83.7604 21.5156 84.3594 21.1094 85.0781C20.7031 85.7865 20.3958 86.5052 20.1875 87.2344C19.9896 87.9531 19.8802 88.5573 19.8594 89.0469ZM43.625 95.8125V86.6406C43.625 85.6927 43.4583 84.9219 43.125 84.3281C42.7917 83.7344 42.3021 83.2969 41.6562 83.0156C41.0208 82.724 40.2396 82.5781 39.3125 82.5781C38.4583 82.5781 37.6927 82.75 37.0156 83.0938C36.3385 83.4271 35.8021 83.9062 35.4062 84.5312C35.0104 85.1562 34.8125 85.8958 34.8125 86.75L34.0156 86.7031C34.0156 86.0052 34.1458 85.3594 34.4062 84.7656C34.6667 84.1615 35.0312 83.6406 35.5 83.2031C35.9792 82.7552 36.5417 82.4062 37.1875 82.1562C37.8438 81.9062 38.5625 81.7812 39.3438 81.7812C40.3333 81.7812 41.2083 81.9427 41.9688 82.2656C42.7292 82.5885 43.3281 83.1094 43.7656 83.8281C44.2031 84.5365 44.4219 85.4844 44.4219 86.6719V95.6094C44.4219 96.224 44.4531 96.8333 44.5156 97.4375C44.5885 98.0417 44.6823 98.5156 44.7969 98.8594V99H43.8906C43.7969 98.5938 43.7292 98.099 43.6875 97.5156C43.6458 96.9323 43.625 96.3646 43.625 95.8125ZM43.9375 89.5781L43.9688 90.4062H39.9375C38.9792 90.4062 38.151 90.5156 37.4531 90.7344C36.7656 90.9531 36.1979 91.2604 35.75 91.6562C35.3021 92.0417 34.9688 92.5052 34.75 93.0469C34.5417 93.5781 34.4375 94.1615 34.4375 94.7969C34.4375 95.6198 34.5885 96.3073 34.8906 96.8594C35.2031 97.4115 35.6302 97.8281 36.1719 98.1094C36.724 98.3906 37.3542 98.5312 38.0625 98.5312C39.0625 98.5312 39.9479 98.349 40.7188 97.9844C41.4896 97.6094 42.1354 97.0885 42.6562 96.4219C43.1875 95.7448 43.5885 94.9479 43.8594 94.0312L44.2188 94.7969C44.0521 95.3385 43.8021 95.8802 43.4688 96.4219C43.1354 96.9531 42.7135 97.4427 42.2031 97.8906C41.7031 98.3281 41.1094 98.6823 40.4219 98.9531C39.7344 99.2135 38.9479 99.3438 38.0625 99.3438C37.1771 99.3438 36.401 99.1719 35.7344 98.8281C35.0677 98.4844 34.5521 97.974 34.1875 97.2969C33.8229 96.6094 33.6406 95.75 33.6406 94.7188C33.6406 93.9688 33.7708 93.2812 34.0312 92.6562C34.3021 92.0312 34.6979 91.4896 35.2188 91.0312C35.7396 90.5625 36.3854 90.2031 37.1562 89.9531C37.9375 89.7031 38.8385 89.5781 39.8594 89.5781H43.9375ZM54.5312 98.5312C55.2708 98.5312 55.974 98.4062 56.6406 98.1562C57.3177 97.8958 57.875 97.4323 58.3125 96.7656C58.7604 96.0885 59.0104 95.1302 59.0625 93.8906H59.875C59.8229 95.1719 59.5469 96.2135 59.0469 97.0156C58.5573 97.8177 57.9167 98.4062 57.125 98.7812C56.3333 99.1562 55.4688 99.3438 54.5312 99.3438C53.5938 99.3438 52.7552 99.1823 52.0156 98.8594C51.2865 98.5365 50.6719 98.0521 50.1719 97.4062C49.6719 96.75 49.2917 95.9271 49.0312 94.9375C48.7708 93.9479 48.6406 92.7865 48.6406 91.4531V89.6406C48.6406 88.3073 48.7708 87.1458 49.0312 86.1562C49.2917 85.1667 49.6719 84.349 50.1719 83.7031C50.6719 83.0573 51.2865 82.5781 52.0156 82.2656C52.7552 81.9427 53.5938 81.7812 54.5312 81.7812C55.4583 81.7812 56.3177 81.9688 57.1094 82.3438C57.901 82.7188 58.5469 83.3385 59.0469 84.2031C59.5573 85.0573 59.8333 86.2135 59.875 87.6719H59.0625C59.0208 86.3802 58.7812 85.3646 58.3438 84.625C57.9062 83.8854 57.3542 83.3594 56.6875 83.0469C56.0208 82.7344 55.3021 82.5781 54.5312 82.5781C53.6562 82.5781 52.8958 82.7292 52.25 83.0312C51.6146 83.3229 51.0885 83.7656 50.6719 84.3594C50.2552 84.9531 49.9427 85.6927 49.7344 86.5781C49.5365 87.4531 49.4375 88.474 49.4375 89.6406V91.4531C49.4375 92.6198 49.5365 93.6458 49.7344 94.5312C49.9427 95.4167 50.2552 96.1562 50.6719 96.75C51.0885 97.3438 51.6146 97.7917 52.25 98.0938C52.8958 98.3854 53.6562 98.5312 54.5312 98.5312ZM64.8281 75V99H64.0156V75H64.8281ZM74.0312 82.0938L66.9219 89.875L64.6562 92.0625L64.4062 91.5156L66.5 89.2344L72.8906 82.0938H74.0312ZM73.4219 99L66.6719 89.4688L67.1719 88.8438L74.4531 99H73.4219ZM8.53125 114.922L1.60938 137H0.71875L7.96875 114.25H8.71875L8.53125 114.922ZM15.25 137L8.35938 114.922L8.20312 114.25H8.90625L16.1562 137H15.25ZM13.3125 129.406V130.188H3.57812V129.406H13.3125ZM25.1719 137H20.5156V136.203H25.1719C26.5573 136.203 27.7812 135.885 28.8438 135.25C29.9062 134.604 30.7396 133.688 31.3438 132.5C31.9479 131.302 32.25 129.87 32.25 128.203V123C32.25 121.76 32.0729 120.651 31.7188 119.672C31.375 118.693 30.8854 117.859 30.25 117.172C29.625 116.474 28.8802 115.943 28.0156 115.578C27.151 115.214 26.2031 115.031 25.1719 115.031H20.4375V114.25H25.1719C26.3281 114.25 27.3854 114.448 28.3438 114.844C29.3021 115.229 30.1302 115.802 30.8281 116.562C31.5365 117.312 32.0833 118.234 32.4688 119.328C32.8542 120.411 33.0469 121.646 33.0469 123.031V128.203C33.0469 129.599 32.8542 130.844 32.4688 131.938C32.0833 133.021 31.5365 133.943 30.8281 134.703C30.1302 135.453 29.2969 136.026 28.3281 136.422C27.3698 136.807 26.3177 137 25.1719 137ZM20.6562 114.25V137H19.8438V114.25H20.6562ZM38.4844 114.25H39.3281L47.1719 135.641L55.0469 114.25H55.8594L47.5156 137H46.875L38.4844 114.25ZM38.1875 114.25H38.9688L39.0156 125.953V137H38.1875V114.25ZM55.4062 114.25H56.2344V137H55.4062V125.953V114.25ZM63.4062 114.25V137H62.5781V114.25H63.4062ZM83.7344 114.25V137H82.9219L70.625 115.875V137H69.7812V114.25H70.625L82.8906 135.312V114.25H83.7344Z" fill="white"/>
</svg>
