<svg width="122" height="137" viewBox="0 0 122 137" fill="none" xmlns="http://www.w3.org/2000/svg">
<path d="M13.7031 0.25H19.8906C21.1302 0.25 22.224 0.505208 23.1719 1.01562C24.1302 1.51562 24.8802 2.25521 25.4219 3.23438C25.9635 4.20312 26.2344 5.39583 26.2344 6.8125C26.2344 7.90625 26.0312 8.90104 25.625 9.79688C25.2292 10.6927 24.6875 11.4271 24 12C23.3229 12.5729 22.5625 12.9219 21.7188 13.0469L21.2969 13.25H13.9688L13.9375 12.4531H20.5C21.5938 12.4531 22.5052 12.1771 23.2344 11.625C23.9635 11.0729 24.5104 10.3698 24.875 9.51562C25.25 8.65104 25.4375 7.75 25.4375 6.8125C25.4375 5.60417 25.2083 4.57292 24.75 3.71875C24.3021 2.85417 23.6615 2.19271 22.8281 1.73438C21.9948 1.26562 21.0156 1.03125 19.8906 1.03125H14.5156V23H13.7031V0.25ZM26.1875 23L20.9062 12.9844L21.8438 12.9688L27.0469 22.7812V23H26.1875ZM36.8906 23.3438C36.0052 23.3438 35.1771 23.1823 34.4062 22.8594C33.6458 22.5365 32.9792 22.0521 32.4062 21.4062C31.8333 20.75 31.3854 19.9323 31.0625 18.9531C30.7396 17.9635 30.5781 16.8125 30.5781 15.5V13.5938C30.5781 12.2812 30.7344 11.1354 31.0469 10.1562C31.3594 9.17708 31.7917 8.36458 32.3438 7.71875C32.9062 7.07292 33.5521 6.58854 34.2812 6.26562C35.0104 5.94271 35.7865 5.78125 36.6094 5.78125C37.4219 5.78125 38.1615 5.91146 38.8281 6.17188C39.4948 6.43229 40.0729 6.83854 40.5625 7.39062C41.0521 7.93229 41.4271 8.64062 41.6875 9.51562C41.9479 10.3906 42.0781 11.4479 42.0781 12.6875V13.9375H31.1094V13.1406H41.2656V12.6719C41.2656 11.3281 41.0729 10.2031 40.6875 9.29688C40.3125 8.39062 39.776 7.71354 39.0781 7.26562C38.3802 6.80729 37.5573 6.57812 36.6094 6.57812C35.8281 6.57812 35.1198 6.73438 34.4844 7.04688C33.849 7.34896 33.2969 7.79688 32.8281 8.39062C32.3698 8.98438 32.0156 9.71875 31.7656 10.5938C31.5156 11.4688 31.3906 12.4688 31.3906 13.5938V15.5C31.3906 16.6562 31.526 17.6771 31.7969 18.5625C32.0781 19.4375 32.4688 20.1719 32.9688 20.7656C33.4688 21.349 34.0521 21.7917 34.7188 22.0938C35.3958 22.3854 36.125 22.5312 36.9062 22.5312C37.7188 22.5312 38.4792 22.4115 39.1875 22.1719C39.8958 21.9323 40.5365 21.4792 41.1094 20.8125L41.5625 21.2969C41.25 21.6927 40.875 22.0469 40.4375 22.3594C40 22.6719 39.4896 22.9115 38.9062 23.0781C38.3229 23.2552 37.651 23.3438 36.8906 23.3438ZM54.9219 18.8594C54.9219 18.2865 54.8021 17.7552 54.5625 17.2656C54.3229 16.7656 53.8906 16.2917 53.2656 15.8438C52.651 15.3958 51.7604 14.9583 50.5938 14.5312C49.75 14.2188 49.0104 13.8958 48.375 13.5625C47.75 13.2292 47.224 12.875 46.7969 12.5C46.3802 12.125 46.0677 11.7188 45.8594 11.2812C45.651 10.8438 45.5469 10.3646 45.5469 9.84375C45.5469 9.25 45.6562 8.70833 45.875 8.21875C46.0938 7.71875 46.4115 7.28646 46.8281 6.92188C47.2448 6.55729 47.75 6.27604 48.3438 6.07812C48.9375 5.88021 49.6094 5.78125 50.3594 5.78125C51.4323 5.78125 52.349 5.95312 53.1094 6.29688C53.8802 6.64062 54.474 7.14062 54.8906 7.79688C55.3073 8.45312 55.5156 9.26042 55.5156 10.2188H54.6875C54.6875 9.40625 54.5208 8.73438 54.1875 8.20312C53.8542 7.66146 53.3646 7.25521 52.7188 6.98438C52.0833 6.71354 51.2969 6.57812 50.3594 6.57812C49.4115 6.57812 48.6406 6.73958 48.0469 7.0625C47.4635 7.375 47.0312 7.77604 46.75 8.26562C46.4792 8.75521 46.3438 9.26562 46.3438 9.79688C46.3438 10.2031 46.4167 10.5833 46.5625 10.9375C46.7188 11.2917 46.9688 11.6354 47.3125 11.9688C47.6562 12.2917 48.1198 12.6094 48.7031 12.9219C49.2865 13.2344 50.0104 13.5469 50.875 13.8594C52.0521 14.2865 52.9948 14.7448 53.7031 15.2344C54.4219 15.7135 54.9375 16.25 55.25 16.8438C55.5729 17.4375 55.7344 18.1146 55.7344 18.875C55.7344 19.5312 55.6146 20.1302 55.375 20.6719C55.1458 21.2135 54.8073 21.6823 54.3594 22.0781C53.9219 22.474 53.3906 22.7812 52.7656 23C52.1406 23.2083 51.4427 23.3125 50.6719 23.3125C49.5052 23.3125 48.5156 23.1146 47.7031 22.7188C46.901 22.3229 46.2917 21.7917 45.875 21.125C45.4688 20.4479 45.2656 19.7031 45.2656 18.8906H46.0781C46.1302 19.8594 46.3906 20.6042 46.8594 21.125C47.3385 21.6458 47.9219 22.0104 48.6094 22.2188C49.2969 22.4167 49.9844 22.5156 50.6719 22.5156C51.5677 22.5156 52.3281 22.3594 52.9531 22.0469C53.5885 21.7344 54.0729 21.3021 54.4062 20.75C54.75 20.1979 54.9219 19.5677 54.9219 18.8594ZM65.5156 23.3438C64.6302 23.3438 63.8021 23.1823 63.0312 22.8594C62.2708 22.5365 61.6042 22.0521 61.0312 21.4062C60.4583 20.75 60.0104 19.9323 59.6875 18.9531C59.3646 17.9635 59.2031 16.8125 59.2031 15.5V13.5938C59.2031 12.2812 59.3594 11.1354 59.6719 10.1562C59.9844 9.17708 60.4167 8.36458 60.9688 7.71875C61.5312 7.07292 62.1771 6.58854 62.9062 6.26562C63.6354 5.94271 64.4115 5.78125 65.2344 5.78125C66.0469 5.78125 66.7865 5.91146 67.4531 6.17188C68.1198 6.43229 68.6979 6.83854 69.1875 7.39062C69.6771 7.93229 70.0521 8.64062 70.3125 9.51562C70.5729 10.3906 70.7031 11.4479 70.7031 12.6875V13.9375H59.7344V13.1406H69.8906V12.6719C69.8906 11.3281 69.6979 10.2031 69.3125 9.29688C68.9375 8.39062 68.401 7.71354 67.7031 7.26562C67.0052 6.80729 66.1823 6.57812 65.2344 6.57812C64.4531 6.57812 63.7448 6.73438 63.1094 7.04688C62.474 7.34896 61.9219 7.79688 61.4531 8.39062C60.9948 8.98438 60.6406 9.71875 60.3906 10.5938C60.1406 11.4688 60.0156 12.4688 60.0156 13.5938V15.5C60.0156 16.6562 60.151 17.6771 60.4219 18.5625C60.7031 19.4375 61.0938 20.1719 61.5938 20.7656C62.0938 21.349 62.6771 21.7917 63.3438 22.0938C64.0208 22.3854 64.75 22.5312 65.5312 22.5312C66.3438 22.5312 67.1042 22.4115 67.8125 22.1719C68.5208 21.9323 69.1615 21.4792 69.7344 20.8125L70.1875 21.2969C69.875 21.6927 69.5 22.0469 69.0625 22.3594C68.625 22.6719 68.1146 22.9115 67.5312 23.0781C66.9479 23.2552 66.276 23.3438 65.5156 23.3438ZM75.5938 9.04688V23H74.7656V6.09375H75.5938V9.04688ZM81.2188 5.92188L81.1094 6.65625C80.974 6.61458 80.8281 6.58854 80.6719 6.57812C80.5156 6.55729 80.349 6.54688 80.1719 6.54688C79.3906 6.54688 78.7031 6.74479 78.1094 7.14062C77.5156 7.52604 77.0208 8.0625 76.625 8.75C76.2292 9.42708 75.9323 10.2135 75.7344 11.1094C75.5365 12.0052 75.4375 12.9583 75.4375 13.9688L74.9531 14C74.9531 12.8125 75.0573 11.7188 75.2656 10.7188C75.4844 9.71875 75.8125 8.84896 76.25 8.10938C76.6875 7.36979 77.2344 6.79688 77.8906 6.39062C78.5469 5.98438 79.3177 5.78125 80.2031 5.78125C80.4115 5.78125 80.599 5.79167 80.7656 5.8125C80.9427 5.83333 81.0938 5.86979 81.2188 5.92188ZM88.8594 22.0469L94.0625 6.09375H94.9219L89.3594 23H88.625L88.8594 22.0469ZM83.9219 6.09375L89.1406 22.0469L89.3438 23H88.5938L83.0469 6.09375H83.9219ZM103.328 23.3438C102.443 23.3438 101.615 23.1823 100.844 22.8594C100.083 22.5365 99.4167 22.0521 98.8438 21.4062C98.2708 20.75 97.8229 19.9323 97.5 18.9531C97.1771 17.9635 97.0156 16.8125 97.0156 15.5V13.5938C97.0156 12.2812 97.1719 11.1354 97.4844 10.1562C97.7969 9.17708 98.2292 8.36458 98.7812 7.71875C99.3438 7.07292 99.9896 6.58854 100.719 6.26562C101.448 5.94271 102.224 5.78125 103.047 5.78125C103.859 5.78125 104.599 5.91146 105.266 6.17188C105.932 6.43229 106.51 6.83854 107 7.39062C107.49 7.93229 107.865 8.64062 108.125 9.51562C108.385 10.3906 108.516 11.4479 108.516 12.6875V13.9375H97.5469V13.1406H107.703V12.6719C107.703 11.3281 107.51 10.2031 107.125 9.29688C106.75 8.39062 106.214 7.71354 105.516 7.26562C104.818 6.80729 103.995 6.57812 103.047 6.57812C102.266 6.57812 101.557 6.73438 100.922 7.04688C100.286 7.34896 99.7344 7.79688 99.2656 8.39062C98.8073 8.98438 98.4531 9.71875 98.2031 10.5938C97.9531 11.4688 97.8281 12.4688 97.8281 13.5938V15.5C97.8281 16.6562 97.9635 17.6771 98.2344 18.5625C98.5156 19.4375 98.9062 20.1719 99.4062 20.7656C99.9062 21.349 100.49 21.7917 101.156 22.0938C101.833 22.3854 102.562 22.5312 103.344 22.5312C104.156 22.5312 104.917 22.4115 105.625 22.1719C106.333 21.9323 106.974 21.4792 107.547 20.8125L108 21.2969C107.688 21.6927 107.312 22.0469 106.875 22.3594C106.438 22.6719 105.927 22.9115 105.344 23.0781C104.76 23.2552 104.089 23.3438 103.328 23.3438ZM19.125 48.9844L17.6719 58.1719C16.9844 58.9948 16.125 59.6354 15.0938 60.0938C14.0625 60.5521 12.9792 60.8698 11.8438 61.0469C10.7188 61.2344 9.65104 61.3177 8.64062 61.2969C7.06771 61.276 5.73438 60.9635 4.64062 60.3594C3.54688 59.7552 2.67188 58.9375 2.01562 57.9062C1.36979 56.875 0.932292 55.7083 0.703125 54.4062C0.484375 53.0938 0.463542 51.724 0.640625 50.2969L0.828125 48.9688C1.02604 47.5 1.40625 46.099 1.96875 44.7656C2.54167 43.4323 3.28646 42.25 4.20312 41.2188C5.13021 40.1771 6.22396 39.3594 7.48438 38.7656C8.75521 38.1719 10.1927 37.8906 11.7969 37.9219C13.4427 37.9427 14.8385 38.2552 15.9844 38.8594C17.1406 39.4635 18.0365 40.3333 18.6719 41.4688C19.3073 42.5938 19.6771 43.9635 19.7812 45.5781L15.0312 45.5625C14.9688 44.8438 14.8229 44.2135 14.5938 43.6719C14.375 43.1198 14.0312 42.6875 13.5625 42.375C13.0938 42.0521 12.4635 41.875 11.6719 41.8438C10.7135 41.8021 9.89062 42 9.20312 42.4375C8.52604 42.8646 7.95833 43.4375 7.5 44.1562C7.04167 44.8646 6.68229 45.6406 6.42188 46.4844C6.16146 47.3281 5.97396 48.1406 5.85938 48.9219L5.67188 50.3125C5.58854 51.0417 5.54167 51.8125 5.53125 52.625C5.53125 53.4375 5.63542 54.1979 5.84375 54.9062C6.05208 55.6146 6.41667 56.1979 6.9375 56.6562C7.46875 57.1042 8.21354 57.3385 9.17188 57.3594C9.61979 57.3698 10.0521 57.3438 10.4688 57.2812C10.8854 57.2083 11.2865 57.0938 11.6719 56.9375C12.0677 56.7812 12.4479 56.5781 12.8125 56.3281L13.5469 52.5312H9.60938L10.2344 48.9844H19.125ZM20.9375 52.8125L20.9688 52.4844C21.1042 51.276 21.401 50.1406 21.8594 49.0781C22.3177 48.0156 22.9271 47.0833 23.6875 46.2812C24.4479 45.4792 25.3438 44.8542 26.375 44.4062C27.4062 43.9583 28.5625 43.75 29.8438 43.7812C31.0729 43.8021 32.1354 44.0469 33.0312 44.5156C33.9375 44.974 34.6771 45.599 35.25 46.3906C35.8229 47.1823 36.2292 48.0885 36.4688 49.1094C36.7083 50.1302 36.776 51.2135 36.6719 52.3594L36.6406 52.7031C36.5052 53.901 36.2031 55.026 35.7344 56.0781C35.2656 57.1302 34.651 58.0521 33.8906 58.8438C33.1302 59.6354 32.2344 60.2552 31.2031 60.7031C30.1719 61.1406 29.0208 61.3438 27.75 61.3125C26.5312 61.2917 25.4688 61.0521 24.5625 60.5938C23.6667 60.1354 22.9323 59.5156 22.3594 58.7344C21.7865 57.9531 21.3802 57.0573 21.1406 56.0469C20.901 55.0365 20.8333 53.9583 20.9375 52.8125ZM25.7344 52.4844L25.7031 52.8125C25.6719 53.2812 25.6562 53.7865 25.6562 54.3281C25.6667 54.8594 25.7396 55.3698 25.875 55.8594C26.0208 56.349 26.2604 56.75 26.5938 57.0625C26.9375 57.3646 27.4167 57.526 28.0312 57.5469C28.6979 57.5677 29.2604 57.4323 29.7188 57.1406C30.1771 56.849 30.5521 56.4583 30.8438 55.9688C31.1458 55.4688 31.375 54.9323 31.5312 54.3594C31.6979 53.7865 31.8073 53.2292 31.8594 52.6875L31.8906 52.3594C31.9323 51.901 31.9479 51.401 31.9375 50.8594C31.9375 50.3073 31.8646 49.7865 31.7188 49.2969C31.5833 48.7969 31.3438 48.3906 31 48.0781C30.6562 47.7552 30.1771 47.5833 29.5625 47.5625C28.8958 47.5417 28.3281 47.6823 27.8594 47.9844C27.401 48.2865 27.026 48.6875 26.7344 49.1875C26.4427 49.6875 26.2188 50.2292 26.0625 50.8125C25.9062 51.3854 25.7969 51.9427 25.7344 52.4844ZM48.0156 56.6719L50.2031 44.0938H54.9844L52.0469 61H47.5938L48.0156 56.6719ZM49 53.4531L50.3125 53.4219C50.1979 54.3906 49.9792 55.3542 49.6562 56.3125C49.3438 57.2604 48.9062 58.1146 48.3438 58.875C47.7917 59.6354 47.099 60.2396 46.2656 60.6875C45.4427 61.1354 44.4688 61.349 43.3438 61.3281C42.4167 61.3073 41.6354 61.1302 41 60.7969C40.3646 60.4635 39.8542 60.0052 39.4688 59.4219C39.0938 58.8385 38.8385 58.1719 38.7031 57.4219C38.5781 56.6719 38.5573 55.875 38.6406 55.0312L40.4688 44.0938H45.2344L43.375 55.0938C43.3438 55.4167 43.3438 55.724 43.375 56.0156C43.4167 56.3073 43.5 56.5625 43.625 56.7812C43.75 57 43.9271 57.1771 44.1562 57.3125C44.3958 57.4375 44.7031 57.5052 45.0781 57.5156C45.9219 57.5573 46.6094 57.3906 47.1406 57.0156C47.6823 56.6302 48.099 56.125 48.3906 55.5C48.6927 54.8646 48.8958 54.1823 49 53.4531ZM62.0938 48.2969L59.8906 61H55.125L58.0625 44.0938H62.5156L62.0938 48.2969ZM67.6094 43.9531L67.0156 48.5C66.7448 48.4583 66.4792 48.4219 66.2188 48.3906C65.9583 48.3594 65.6927 48.3438 65.4219 48.3438C64.8281 48.3333 64.2917 48.4062 63.8125 48.5625C63.3438 48.7083 62.9323 48.9323 62.5781 49.2344C62.2344 49.5365 61.9479 49.9115 61.7188 50.3594C61.4896 50.7969 61.3177 51.2969 61.2031 51.8594L60.3281 51.4219C60.4427 50.6198 60.6198 49.776 60.8594 48.8906C61.099 47.9948 61.4323 47.1562 61.8594 46.375C62.2969 45.5833 62.8542 44.9479 63.5312 44.4688C64.2188 43.9792 65.0625 43.7344 66.0625 43.7344C66.3229 43.7344 66.5781 43.7552 66.8281 43.7969C67.0885 43.8385 67.349 43.8906 67.6094 43.9531ZM73.7188 47.9062L71.4531 61H66.6719L69.6094 44.0938H74.0781L73.7188 47.9062ZM72.4375 51.9531L71.3125 52C71.4167 50.9792 71.6354 49.974 71.9688 48.9844C72.3125 47.9948 72.776 47.1042 73.3594 46.3125C73.9531 45.5104 74.6823 44.8802 75.5469 44.4219C76.4219 43.9531 77.4375 43.7344 78.5938 43.7656C79.4583 43.7865 80.1719 43.9688 80.7344 44.3125C81.3073 44.6458 81.7552 45.0885 82.0781 45.6406C82.4115 46.1927 82.6302 46.8229 82.7344 47.5312C82.8385 48.2292 82.8542 48.9583 82.7812 49.7188L80.8906 61H76.125L77.9062 50.2969C77.9688 49.8073 77.974 49.3594 77.9219 48.9531C77.8698 48.5469 77.7135 48.2135 77.4531 47.9531C77.2031 47.6927 76.8021 47.5573 76.25 47.5469C75.6354 47.526 75.1094 47.651 74.6719 47.9219C74.2344 48.1823 73.8646 48.5312 73.5625 48.9688C73.2604 49.4062 73.0156 49.8854 72.8281 50.4062C72.651 50.9271 72.5208 51.4427 72.4375 51.9531ZM82.0625 51.7031L80.5938 51.8438C80.6979 50.8333 80.9115 49.849 81.2344 48.8906C81.5677 47.9219 82.026 47.0469 82.6094 46.2656C83.1927 45.4844 83.9115 44.8698 84.7656 44.4219C85.6198 43.9635 86.6198 43.7448 87.7656 43.7656C88.6927 43.7969 89.4583 43.9948 90.0625 44.3594C90.6771 44.724 91.1458 45.2135 91.4688 45.8281C91.8021 46.4427 92.0208 47.1354 92.125 47.9062C92.2292 48.6667 92.2344 49.4583 92.1406 50.2812L90.3594 61H85.5625L87.3594 50.2656C87.4219 49.7865 87.4271 49.3438 87.375 48.9375C87.3229 48.5312 87.1719 48.2031 86.9219 47.9531C86.6719 47.6927 86.2708 47.5573 85.7188 47.5469C85.1354 47.526 84.6302 47.6406 84.2031 47.8906C83.776 48.1302 83.4167 48.4531 83.125 48.8594C82.8333 49.2656 82.6042 49.7188 82.4375 50.2188C82.2708 50.7083 82.1458 51.2031 82.0625 51.7031ZM101.641 61.3125C100.474 61.2917 99.4167 61.0729 98.4688 60.6562C97.5312 60.2396 96.7396 59.6667 96.0938 58.9375C95.4479 58.1979 94.974 57.3385 94.6719 56.3594C94.3698 55.3802 94.2604 54.3125 94.3438 53.1562L94.4062 52.5469C94.5312 51.3385 94.8177 50.2031 95.2656 49.1406C95.724 48.0781 96.3333 47.1406 97.0938 46.3281C97.8542 45.5052 98.75 44.8698 99.7812 44.4219C100.823 43.9635 101.984 43.75 103.266 43.7812C104.443 43.8021 105.453 44.0417 106.297 44.5C107.151 44.9479 107.839 45.5573 108.359 46.3281C108.891 47.099 109.255 47.974 109.453 48.9531C109.651 49.9323 109.693 50.9688 109.578 52.0625L109.297 54.0625H96.0625L96.5625 50.9219L105.016 50.9375L105.109 50.5156C105.182 49.9844 105.156 49.5 105.031 49.0625C104.906 48.6146 104.672 48.2552 104.328 47.9844C103.984 47.7135 103.521 47.5677 102.938 47.5469C102.26 47.5365 101.693 47.6823 101.234 47.9844C100.776 48.2865 100.406 48.6927 100.125 49.2031C99.8438 49.7031 99.625 50.25 99.4688 50.8438C99.3229 51.4271 99.2135 51.9948 99.1406 52.5469L99.0781 53.1406C99.0365 53.6823 99.0521 54.2083 99.125 54.7188C99.2083 55.2292 99.3646 55.6927 99.5938 56.1094C99.8333 56.5156 100.156 56.849 100.562 57.1094C100.979 57.3594 101.495 57.4948 102.109 57.5156C102.911 57.5365 103.656 57.3802 104.344 57.0469C105.042 56.7135 105.667 56.2656 106.219 55.7031L108.281 58.3125C107.802 59.0208 107.198 59.599 106.469 60.0469C105.74 60.4844 104.953 60.8073 104.109 61.0156C103.276 61.224 102.453 61.3229 101.641 61.3125ZM121.625 44.0938L121.016 47.5156H111.281L111.875 44.0938H121.625ZM114.828 39.9062H119.594L116.875 55.7344C116.833 56.099 116.833 56.401 116.875 56.6406C116.927 56.8802 117.042 57.0677 117.219 57.2031C117.406 57.3281 117.693 57.401 118.078 57.4219C118.307 57.4323 118.531 57.4271 118.75 57.4062C118.969 57.375 119.188 57.349 119.406 57.3281L119.062 60.9062C118.635 61.0417 118.198 61.1406 117.75 61.2031C117.312 61.2656 116.865 61.2969 116.406 61.2969C115.375 61.276 114.521 61.0625 113.844 60.6562C113.167 60.2396 112.677 59.6562 112.375 58.9062C112.083 58.1458 111.984 57.2604 112.078 56.25L114.828 39.9062ZM40.9219 93.5469C40.9219 92.8281 40.8177 92.1875 40.6094 91.625C40.401 91.0625 40.0677 90.5573 39.6094 90.1094C39.151 89.651 38.5469 89.2344 37.7969 88.8594C37.0469 88.474 36.1302 88.1042 35.0469 87.75C34.0677 87.4375 33.1771 87.1042 32.375 86.75C31.5833 86.3958 30.9062 85.9844 30.3438 85.5156C29.7917 85.0469 29.3646 84.4896 29.0625 83.8438C28.7604 83.1875 28.6094 82.4062 28.6094 81.5C28.6094 80.625 28.7708 79.8438 29.0938 79.1562C29.4167 78.4688 29.8646 77.8854 30.4375 77.4062C31.0208 76.9271 31.7031 76.5625 32.4844 76.3125C33.276 76.0625 34.1302 75.9375 35.0469 75.9375C36.3073 75.9375 37.4167 76.1667 38.375 76.625C39.3438 77.0833 40.099 77.7656 40.6406 78.6719C41.1927 79.5781 41.4688 80.7083 41.4688 82.0625H40.6719C40.6719 80.9271 40.4375 79.9635 39.9688 79.1719C39.5 78.3698 38.8438 77.7604 38 77.3438C37.1562 76.9271 36.1719 76.7188 35.0469 76.7188C33.8385 76.7188 32.8125 76.9427 31.9688 77.3906C31.1354 77.8281 30.5 78.4062 30.0625 79.125C29.6354 79.8333 29.4219 80.599 29.4219 81.4219C29.4219 82.1719 29.5469 82.8281 29.7969 83.3906C30.0573 83.9531 30.4323 84.4479 30.9219 84.875C31.4219 85.3021 32.0365 85.6875 32.7656 86.0312C33.4948 86.375 34.3385 86.7031 35.2969 87.0156C36.4115 87.3281 37.375 87.6927 38.1875 88.1094C39 88.5156 39.6719 88.9844 40.2031 89.5156C40.7344 90.0469 41.1302 90.6458 41.3906 91.3125C41.651 91.9688 41.7812 92.7031 41.7812 93.5156C41.7812 94.4531 41.6094 95.2812 41.2656 96C40.9323 96.7188 40.4635 97.3229 39.8594 97.8125C39.2552 98.3021 38.5521 98.6771 37.75 98.9375C36.9583 99.1875 36.1094 99.3125 35.2031 99.3125C34.3802 99.3125 33.5469 99.2031 32.7031 98.9844C31.8698 98.7552 31.099 98.3802 30.3906 97.8594C29.6927 97.3385 29.1302 96.6458 28.7031 95.7812C28.2865 94.9167 28.0781 93.8438 28.0781 92.5625H28.9062C28.9062 93.7188 29.099 94.6823 29.4844 95.4531C29.8802 96.2135 30.3906 96.8177 31.0156 97.2656C31.651 97.7135 32.3333 98.0365 33.0625 98.2344C33.8021 98.4219 34.5156 98.5156 35.2031 98.5156C36.3177 98.5156 37.3021 98.3073 38.1562 97.8906C39.0208 97.4635 39.6979 96.8802 40.1875 96.1406C40.6771 95.3906 40.9219 94.526 40.9219 93.5469ZM46.5156 85.7031V99H45.6875V82.0938H46.5L46.5156 85.7031ZM46.375 89.0469L45.9375 88.1406C46.0208 87.3177 46.2135 86.526 46.5156 85.7656C46.8177 85.0052 47.2135 84.3281 47.7031 83.7344C48.1927 83.1302 48.7604 82.6562 49.4062 82.3125C50.0521 81.9583 50.7656 81.7812 51.5469 81.7812C52.276 81.7812 52.9219 81.901 53.4844 82.1406C54.0573 82.3698 54.5365 82.7396 54.9219 83.25C55.3073 83.75 55.599 84.401 55.7969 85.2031C56.0052 85.9948 56.1094 86.9479 56.1094 88.0625V99H55.2969V88.0469C55.2969 86.599 55.1302 85.4792 54.7969 84.6875C54.474 83.8958 54.026 83.3438 53.4531 83.0312C52.8802 82.7188 52.2135 82.5625 51.4531 82.5625C50.5677 82.5625 49.8073 82.8021 49.1719 83.2812C48.5469 83.7604 48.0312 84.3594 47.625 85.0781C47.2188 85.7865 46.9115 86.5052 46.7031 87.2344C46.5052 87.9531 46.3958 88.5573 46.375 89.0469ZM70.1406 95.8125V86.6406C70.1406 85.6927 69.974 84.9219 69.6406 84.3281C69.3073 83.7344 68.8177 83.2969 68.1719 83.0156C67.5365 82.724 66.7552 82.5781 65.8281 82.5781C64.974 82.5781 64.2083 82.75 63.5312 83.0938C62.8542 83.4271 62.3177 83.9062 61.9219 84.5312C61.526 85.1562 61.3281 85.8958 61.3281 86.75L60.5312 86.7031C60.5312 86.0052 60.6615 85.3594 60.9219 84.7656C61.1823 84.1615 61.5469 83.6406 62.0156 83.2031C62.4948 82.7552 63.0573 82.4062 63.7031 82.1562C64.3594 81.9062 65.0781 81.7812 65.8594 81.7812C66.849 81.7812 67.724 81.9427 68.4844 82.2656C69.2448 82.5885 69.8438 83.1094 70.2812 83.8281C70.7188 84.5365 70.9375 85.4844 70.9375 86.6719V95.6094C70.9375 96.224 70.9688 96.8333 71.0312 97.4375C71.1042 98.0417 71.1979 98.5156 71.3125 98.8594V99H70.4062C70.3125 98.5938 70.2448 98.099 70.2031 97.5156C70.1615 96.9323 70.1406 96.3646 70.1406 95.8125ZM70.4531 89.5781L70.4844 90.4062H66.4531C65.4948 90.4062 64.6667 90.5156 63.9688 90.7344C63.2812 90.9531 62.7135 91.2604 62.2656 91.6562C61.8177 92.0417 61.4844 92.5052 61.2656 93.0469C61.0573 93.5781 60.9531 94.1615 60.9531 94.7969C60.9531 95.6198 61.1042 96.3073 61.4062 96.8594C61.7188 97.4115 62.1458 97.8281 62.6875 98.1094C63.2396 98.3906 63.8698 98.5312 64.5781 98.5312C65.5781 98.5312 66.4635 98.349 67.2344 97.9844C68.0052 97.6094 68.651 97.0885 69.1719 96.4219C69.7031 95.7448 70.1042 94.9479 70.375 94.0312L70.7344 94.7969C70.5677 95.3385 70.3177 95.8802 69.9844 96.4219C69.651 96.9531 69.2292 97.4427 68.7188 97.8906C68.2188 98.3281 67.625 98.6823 66.9375 98.9531C66.25 99.2135 65.4635 99.3438 64.5781 99.3438C63.6927 99.3438 62.9167 99.1719 62.25 98.8281C61.5833 98.4844 61.0677 97.974 60.7031 97.2969C60.3385 96.6094 60.1562 95.75 60.1562 94.7188C60.1562 93.9688 60.2865 93.2812 60.5469 92.6562C60.8177 92.0312 61.2135 91.4896 61.7344 91.0312C62.2552 90.5625 62.901 90.2031 63.6719 89.9531C64.4531 89.7031 65.3542 89.5781 66.375 89.5781H70.4531ZM81.0469 98.5312C81.7865 98.5312 82.4896 98.4062 83.1562 98.1562C83.8333 97.8958 84.3906 97.4323 84.8281 96.7656C85.276 96.0885 85.526 95.1302 85.5781 93.8906H86.3906C86.3385 95.1719 86.0625 96.2135 85.5625 97.0156C85.0729 97.8177 84.4323 98.4062 83.6406 98.7812C82.849 99.1562 81.9844 99.3438 81.0469 99.3438C80.1094 99.3438 79.2708 99.1823 78.5312 98.8594C77.8021 98.5365 77.1875 98.0521 76.6875 97.4062C76.1875 96.75 75.8073 95.9271 75.5469 94.9375C75.2865 93.9479 75.1562 92.7865 75.1562 91.4531V89.6406C75.1562 88.3073 75.2865 87.1458 75.5469 86.1562C75.8073 85.1667 76.1875 84.349 76.6875 83.7031C77.1875 83.0573 77.8021 82.5781 78.5312 82.2656C79.2708 81.9427 80.1094 81.7812 81.0469 81.7812C81.974 81.7812 82.8333 81.9688 83.625 82.3438C84.4167 82.7188 85.0625 83.3385 85.5625 84.2031C86.0729 85.0573 86.349 86.2135 86.3906 87.6719H85.5781C85.5365 86.3802 85.2969 85.3646 84.8594 84.625C84.4219 83.8854 83.8698 83.3594 83.2031 83.0469C82.5365 82.7344 81.8177 82.5781 81.0469 82.5781C80.1719 82.5781 79.4115 82.7292 78.7656 83.0312C78.1302 83.3229 77.6042 83.7656 77.1875 84.3594C76.7708 84.9531 76.4583 85.6927 76.25 86.5781C76.0521 87.4531 75.9531 88.474 75.9531 89.6406V91.4531C75.9531 92.6198 76.0521 93.6458 76.25 94.5312C76.4583 95.4167 76.7708 96.1562 77.1875 96.75C77.6042 97.3438 78.1302 97.7917 78.7656 98.0938C79.4115 98.3854 80.1719 98.5312 81.0469 98.5312ZM91.3438 75V99H90.5312V75H91.3438ZM100.547 82.0938L93.4375 89.875L91.1719 92.0625L90.9219 91.5156L93.0156 89.2344L99.4062 82.0938H100.547ZM99.9375 99L93.1875 89.4688L93.6875 88.8438L100.969 99H99.9375ZM29.2031 114.922L22.2812 137H21.3906L28.6406 114.25H29.3906L29.2031 114.922ZM35.9219 137L29.0312 114.922L28.875 114.25H29.5781L36.8281 137H35.9219ZM33.9844 129.406V130.188H24.25V129.406H33.9844ZM45.8438 137H41.1875V136.203H45.8438C47.2292 136.203 48.4531 135.885 49.5156 135.25C50.5781 134.604 51.4115 133.688 52.0156 132.5C52.6198 131.302 52.9219 129.87 52.9219 128.203V123C52.9219 121.76 52.7448 120.651 52.3906 119.672C52.0469 118.693 51.5573 117.859 50.9219 117.172C50.2969 116.474 49.5521 115.943 48.6875 115.578C47.8229 115.214 46.875 115.031 45.8438 115.031H41.1094V114.25H45.8438C47 114.25 48.0573 114.448 49.0156 114.844C49.974 115.229 50.8021 115.802 51.5 116.562C52.2083 117.312 52.7552 118.234 53.1406 119.328C53.526 120.411 53.7188 121.646 53.7188 123.031V128.203C53.7188 129.599 53.526 130.844 53.1406 131.938C52.7552 133.021 52.2083 133.943 51.5 134.703C50.8021 135.453 49.9688 136.026 49 136.422C48.0417 136.807 46.9896 137 45.8438 137ZM41.3281 114.25V137H40.5156V114.25H41.3281ZM59.1562 114.25H60L67.8438 135.641L75.7188 114.25H76.5312L68.1875 137H67.5469L59.1562 114.25ZM58.8594 114.25H59.6406L59.6875 125.953V137H58.8594V114.25ZM76.0781 114.25H76.9062V137H76.0781V125.953V114.25ZM84.0781 114.25V137H83.25V114.25H84.0781ZM104.406 114.25V137H103.594L91.2969 115.875V137H90.4531V114.25H91.2969L103.562 135.312V114.25H104.406Z" fill="#720B0B"/>
</svg>
