<svg width="62" height="51" viewBox="0 0 62 51" fill="none" xmlns="http://www.w3.org/2000/svg">
<path d="M1.42969 0.625H4.52344C5.14323 0.625 5.6901 0.752604 6.16406 1.00781C6.64323 1.25781 7.01823 1.6276 7.28906 2.11719C7.5599 2.60156 7.69531 3.19792 7.69531 3.90625C7.69531 4.45312 7.59375 4.95052 7.39062 5.39844C7.19271 5.84635 6.92188 6.21354 6.57812 6.5C6.23958 6.78646 5.85938 6.96094 5.4375 7.02344L5.22656 7.125H1.5625L1.54688 6.72656H4.82812C5.375 6.72656 5.83073 6.58854 6.19531 6.3125C6.5599 6.03646 6.83333 5.6849 7.01562 5.25781C7.20312 4.82552 7.29688 4.375 7.29688 3.90625C7.29688 3.30208 7.18229 2.78646 6.95312 2.35938C6.72917 1.92708 6.40885 1.59635 5.99219 1.36719C5.57552 1.13281 5.08594 1.01562 4.52344 1.01562H1.83594V12H1.42969V0.625ZM7.67188 12L5.03125 6.99219L5.5 6.98438L8.10156 11.8906V12H7.67188ZM13.0234 12.1719C12.5807 12.1719 12.1667 12.0911 11.7812 11.9297C11.401 11.7682 11.0677 11.526 10.7812 11.2031C10.4948 10.875 10.2708 10.4661 10.1094 9.97656C9.94792 9.48177 9.86719 8.90625 9.86719 8.25V7.29688C9.86719 6.64062 9.94531 6.06771 10.1016 5.57812C10.2578 5.08854 10.474 4.68229 10.75 4.35938C11.0312 4.03646 11.3542 3.79427 11.7188 3.63281C12.0833 3.47135 12.4714 3.39062 12.8828 3.39062C13.2891 3.39062 13.6589 3.45573 13.9922 3.58594C14.3255 3.71615 14.6146 3.91927 14.8594 4.19531C15.1042 4.46615 15.2917 4.82031 15.4219 5.25781C15.5521 5.69531 15.6172 6.22396 15.6172 6.84375V7.46875H10.1328V7.07031H15.2109V6.83594C15.2109 6.16406 15.1146 5.60156 14.9219 5.14844C14.7344 4.69531 14.4661 4.35677 14.1172 4.13281C13.7682 3.90365 13.3568 3.78906 12.8828 3.78906C12.4922 3.78906 12.138 3.86719 11.8203 4.02344C11.5026 4.17448 11.2266 4.39844 10.9922 4.69531C10.763 4.99219 10.5859 5.35938 10.4609 5.79688C10.3359 6.23438 10.2734 6.73438 10.2734 7.29688V8.25C10.2734 8.82812 10.3411 9.33854 10.4766 9.78125C10.6172 10.2188 10.8125 10.5859 11.0625 10.8828C11.3125 11.1745 11.6042 11.3958 11.9375 11.5469C12.276 11.6927 12.6406 11.7656 13.0312 11.7656C13.4375 11.7656 13.8177 11.7057 14.1719 11.5859C14.526 11.4661 14.8464 11.2396 15.1328 10.9062L15.3594 11.1484C15.2031 11.3464 15.0156 11.5234 14.7969 11.6797C14.5781 11.8359 14.3229 11.9557 14.0312 12.0391C13.7396 12.1276 13.4036 12.1719 13.0234 12.1719ZM22.0391 9.92969C22.0391 9.64323 21.9792 9.3776 21.8594 9.13281C21.7396 8.88281 21.5234 8.64583 21.2109 8.42188C20.9036 8.19792 20.4583 7.97917 19.875 7.76562C19.4531 7.60938 19.0833 7.44792 18.7656 7.28125C18.4531 7.11458 18.1901 6.9375 17.9766 6.75C17.7682 6.5625 17.612 6.35938 17.5078 6.14062C17.4036 5.92188 17.3516 5.68229 17.3516 5.42188C17.3516 5.125 17.4062 4.85417 17.5156 4.60938C17.625 4.35938 17.7839 4.14323 17.9922 3.96094C18.2005 3.77865 18.4531 3.63802 18.75 3.53906C19.0469 3.4401 19.3828 3.39062 19.7578 3.39062C20.2943 3.39062 20.7526 3.47656 21.1328 3.64844C21.5182 3.82031 21.8151 4.07031 22.0234 4.39844C22.2318 4.72656 22.3359 5.13021 22.3359 5.60938H21.9219C21.9219 5.20312 21.8385 4.86719 21.6719 4.60156C21.5052 4.33073 21.2604 4.1276 20.9375 3.99219C20.6198 3.85677 20.2266 3.78906 19.7578 3.78906C19.2839 3.78906 18.8984 3.86979 18.6016 4.03125C18.3099 4.1875 18.0938 4.38802 17.9531 4.63281C17.8177 4.8776 17.75 5.13281 17.75 5.39844C17.75 5.60156 17.7865 5.79167 17.8594 5.96875C17.9375 6.14583 18.0625 6.31771 18.2344 6.48438C18.4062 6.64583 18.638 6.80469 18.9297 6.96094C19.2214 7.11719 19.5833 7.27344 20.0156 7.42969C20.6042 7.64323 21.0755 7.8724 21.4297 8.11719C21.7891 8.35677 22.0469 8.625 22.2031 8.92188C22.3646 9.21875 22.4453 9.55729 22.4453 9.9375C22.4453 10.2656 22.3854 10.5651 22.2656 10.8359C22.151 11.1068 21.9818 11.3411 21.7578 11.5391C21.5391 11.737 21.2734 11.8906 20.9609 12C20.6484 12.1042 20.2995 12.1562 19.9141 12.1562C19.3307 12.1562 18.8359 12.0573 18.4297 11.8594C18.0286 11.6615 17.724 11.3958 17.5156 11.0625C17.3125 10.724 17.2109 10.3516 17.2109 9.94531H17.6172C17.6432 10.4297 17.7734 10.8021 18.0078 11.0625C18.2474 11.3229 18.5391 11.5052 18.8828 11.6094C19.2266 11.7083 19.5703 11.7578 19.9141 11.7578C20.362 11.7578 20.7422 11.6797 21.0547 11.5234C21.3724 11.3672 21.6146 11.151 21.7812 10.875C21.9531 10.599 22.0391 10.2839 22.0391 9.92969ZM27.3359 12.1719C26.8932 12.1719 26.4792 12.0911 26.0938 11.9297C25.7135 11.7682 25.3802 11.526 25.0938 11.2031C24.8073 10.875 24.5833 10.4661 24.4219 9.97656C24.2604 9.48177 24.1797 8.90625 24.1797 8.25V7.29688C24.1797 6.64062 24.2578 6.06771 24.4141 5.57812C24.5703 5.08854 24.7865 4.68229 25.0625 4.35938C25.3438 4.03646 25.6667 3.79427 26.0312 3.63281C26.3958 3.47135 26.7839 3.39062 27.1953 3.39062C27.6016 3.39062 27.9714 3.45573 28.3047 3.58594C28.638 3.71615 28.9271 3.91927 29.1719 4.19531C29.4167 4.46615 29.6042 4.82031 29.7344 5.25781C29.8646 5.69531 29.9297 6.22396 29.9297 6.84375V7.46875H24.4453V7.07031H29.5234V6.83594C29.5234 6.16406 29.4271 5.60156 29.2344 5.14844C29.0469 4.69531 28.7786 4.35677 28.4297 4.13281C28.0807 3.90365 27.6693 3.78906 27.1953 3.78906C26.8047 3.78906 26.4505 3.86719 26.1328 4.02344C25.8151 4.17448 25.5391 4.39844 25.3047 4.69531C25.0755 4.99219 24.8984 5.35938 24.7734 5.79688C24.6484 6.23438 24.5859 6.73438 24.5859 7.29688V8.25C24.5859 8.82812 24.6536 9.33854 24.7891 9.78125C24.9297 10.2188 25.125 10.5859 25.375 10.8828C25.625 11.1745 25.9167 11.3958 26.25 11.5469C26.5885 11.6927 26.9531 11.7656 27.3438 11.7656C27.75 11.7656 28.1302 11.7057 28.4844 11.5859C28.8385 11.4661 29.1589 11.2396 29.4453 10.9062L29.6719 11.1484C29.5156 11.3464 29.3281 11.5234 29.1094 11.6797C28.8906 11.8359 28.6354 11.9557 28.3438 12.0391C28.0521 12.1276 27.7161 12.1719 27.3359 12.1719ZM32.375 5.02344V12H31.9609V3.54688H32.375V5.02344ZM35.1875 3.46094L35.1328 3.82812C35.0651 3.80729 34.9922 3.79427 34.9141 3.78906C34.8359 3.77865 34.7526 3.77344 34.6641 3.77344C34.2734 3.77344 33.9297 3.8724 33.6328 4.07031C33.3359 4.26302 33.0885 4.53125 32.8906 4.875C32.6927 5.21354 32.5443 5.60677 32.4453 6.05469C32.3464 6.5026 32.2969 6.97917 32.2969 7.48438L32.0547 7.5C32.0547 6.90625 32.1068 6.35938 32.2109 5.85938C32.3203 5.35938 32.4844 4.92448 32.7031 4.55469C32.9219 4.1849 33.1953 3.89844 33.5234 3.69531C33.8516 3.49219 34.237 3.39062 34.6797 3.39062C34.7839 3.39062 34.8776 3.39583 34.9609 3.40625C35.0495 3.41667 35.125 3.4349 35.1875 3.46094ZM39.0078 11.5234L41.6094 3.54688H42.0391L39.2578 12H38.8906L39.0078 11.5234ZM36.5391 3.54688L39.1484 11.5234L39.25 12H38.875L36.1016 3.54688H36.5391ZM46.2422 12.1719C45.7995 12.1719 45.3854 12.0911 45 11.9297C44.6198 11.7682 44.2865 11.526 44 11.2031C43.7135 10.875 43.4896 10.4661 43.3281 9.97656C43.1667 9.48177 43.0859 8.90625 43.0859 8.25V7.29688C43.0859 6.64062 43.1641 6.06771 43.3203 5.57812C43.4766 5.08854 43.6927 4.68229 43.9688 4.35938C44.25 4.03646 44.5729 3.79427 44.9375 3.63281C45.3021 3.47135 45.6901 3.39062 46.1016 3.39062C46.5078 3.39062 46.8776 3.45573 47.2109 3.58594C47.5443 3.71615 47.8333 3.91927 48.0781 4.19531C48.3229 4.46615 48.5104 4.82031 48.6406 5.25781C48.7708 5.69531 48.8359 6.22396 48.8359 6.84375V7.46875H43.3516V7.07031H48.4297V6.83594C48.4297 6.16406 48.3333 5.60156 48.1406 5.14844C47.9531 4.69531 47.6849 4.35677 47.3359 4.13281C46.987 3.90365 46.5755 3.78906 46.1016 3.78906C45.7109 3.78906 45.3568 3.86719 45.0391 4.02344C44.7214 4.17448 44.4453 4.39844 44.2109 4.69531C43.9818 4.99219 43.8047 5.35938 43.6797 5.79688C43.5547 6.23438 43.4922 6.73438 43.4922 7.29688V8.25C43.4922 8.82812 43.5599 9.33854 43.6953 9.78125C43.8359 10.2188 44.0312 10.5859 44.2812 10.8828C44.5312 11.1745 44.8229 11.3958 45.1562 11.5469C45.4948 11.6927 45.8594 11.7656 46.25 11.7656C46.6562 11.7656 47.0365 11.7057 47.3906 11.5859C47.7448 11.4661 48.0651 11.2396 48.3516 10.9062L48.5781 11.1484C48.4219 11.3464 48.2344 11.5234 48.0156 11.6797C47.7969 11.8359 47.5417 11.9557 47.25 12.0391C46.9583 12.1276 46.6224 12.1719 46.2422 12.1719ZM10.0391 24.9922L9.3125 29.5859C8.96875 29.9974 8.53906 30.3177 8.02344 30.5469C7.50781 30.776 6.96615 30.9349 6.39844 31.0234C5.83594 31.1172 5.30208 31.1589 4.79688 31.1484C4.01042 31.138 3.34375 30.9818 2.79688 30.6797C2.25 30.3776 1.8125 29.9688 1.48438 29.4531C1.16146 28.9375 0.942708 28.3542 0.828125 27.7031C0.71875 27.0469 0.708333 26.362 0.796875 25.6484L0.890625 24.9844C0.989583 24.25 1.17969 23.5495 1.46094 22.8828C1.7474 22.2161 2.11979 21.625 2.57812 21.1094C3.04167 20.5885 3.58854 20.1797 4.21875 19.8828C4.85417 19.5859 5.57292 19.4453 6.375 19.4609C7.19792 19.4714 7.89583 19.6276 8.46875 19.9297C9.04688 20.2318 9.49479 20.6667 9.8125 21.2344C10.1302 21.7969 10.3151 22.4818 10.3672 23.2891L7.99219 23.2812C7.96094 22.9219 7.88802 22.6068 7.77344 22.3359C7.66406 22.0599 7.49219 21.8438 7.25781 21.6875C7.02344 21.526 6.70833 21.4375 6.3125 21.4219C5.83333 21.401 5.42188 21.5 5.07812 21.7188C4.73958 21.9323 4.45573 22.2188 4.22656 22.5781C3.9974 22.9323 3.81771 23.3203 3.6875 23.7422C3.55729 24.1641 3.46354 24.5703 3.40625 24.9609L3.3125 25.6562C3.27083 26.0208 3.2474 26.4062 3.24219 26.8125C3.24219 27.2188 3.29427 27.599 3.39844 27.9531C3.5026 28.3073 3.6849 28.599 3.94531 28.8281C4.21094 29.0521 4.58333 29.1693 5.0625 29.1797C5.28646 29.1849 5.5026 29.1719 5.71094 29.1406C5.91927 29.1042 6.11979 29.0469 6.3125 28.9688C6.51042 28.8906 6.70052 28.7891 6.88281 28.6641L7.25 26.7656H5.28125L5.59375 24.9922H10.0391ZM10.9453 26.9062L10.9609 26.7422C11.0286 26.138 11.1771 25.5703 11.4062 25.0391C11.6354 24.5078 11.9401 24.0417 12.3203 23.6406C12.7005 23.2396 13.1484 22.9271 13.6641 22.7031C14.1797 22.4792 14.7578 22.375 15.3984 22.3906C16.013 22.401 16.5443 22.5234 16.9922 22.7578C17.4453 22.987 17.8151 23.2995 18.1016 23.6953C18.388 24.0911 18.5911 24.5443 18.7109 25.0547C18.8307 25.5651 18.8646 26.1068 18.8125 26.6797L18.7969 26.8516C18.7292 27.4505 18.5781 28.013 18.3438 28.5391C18.1094 29.0651 17.8021 29.526 17.4219 29.9219C17.0417 30.3177 16.5938 30.6276 16.0781 30.8516C15.5625 31.0703 14.987 31.1719 14.3516 31.1562C13.7422 31.1458 13.2109 31.026 12.7578 30.7969C12.3099 30.5677 11.9427 30.2578 11.6562 29.8672C11.3698 29.4766 11.1667 29.0286 11.0469 28.5234C10.9271 28.0182 10.8932 27.4792 10.9453 26.9062ZM13.3438 26.7422L13.3281 26.9062C13.3125 27.1406 13.3047 27.3932 13.3047 27.6641C13.3099 27.9297 13.3464 28.1849 13.4141 28.4297C13.487 28.6745 13.6068 28.875 13.7734 29.0312C13.9453 29.1823 14.1849 29.263 14.4922 29.2734C14.8255 29.2839 15.1068 29.2161 15.3359 29.0703C15.5651 28.9245 15.7526 28.7292 15.8984 28.4844C16.0495 28.2344 16.1641 27.9661 16.2422 27.6797C16.3255 27.3932 16.3802 27.1146 16.4062 26.8438L16.4219 26.6797C16.4427 26.4505 16.4505 26.2005 16.4453 25.9297C16.4453 25.6536 16.4089 25.3932 16.3359 25.1484C16.2682 24.8984 16.1484 24.6953 15.9766 24.5391C15.8047 24.3776 15.5651 24.2917 15.2578 24.2812C14.9245 24.2708 14.6406 24.3411 14.4062 24.4922C14.1771 24.6432 13.9896 24.8438 13.8438 25.0938C13.6979 25.3438 13.5859 25.6146 13.5078 25.9062C13.4297 26.1927 13.375 26.4714 13.3438 26.7422ZM24.4844 28.8359L25.5781 22.5469H27.9688L26.5 31H24.2734L24.4844 28.8359ZM24.9766 27.2266L25.6328 27.2109C25.5755 27.6953 25.4661 28.1771 25.3047 28.6562C25.1484 29.1302 24.9297 29.5573 24.6484 29.9375C24.3724 30.3177 24.026 30.6198 23.6094 30.8438C23.1979 31.0677 22.7109 31.1745 22.1484 31.1641C21.6849 31.1536 21.2943 31.0651 20.9766 30.8984C20.6589 30.7318 20.4036 30.5026 20.2109 30.2109C20.0234 29.9193 19.8958 29.5859 19.8281 29.2109C19.7656 28.8359 19.7552 28.4375 19.7969 28.0156L20.7109 22.5469H23.0938L22.1641 28.0469C22.1484 28.2083 22.1484 28.362 22.1641 28.5078C22.1849 28.6536 22.2266 28.7812 22.2891 28.8906C22.3516 29 22.4401 29.0885 22.5547 29.1562C22.6745 29.2188 22.8281 29.2526 23.0156 29.2578C23.4375 29.2786 23.7812 29.1953 24.0469 29.0078C24.3177 28.8151 24.526 28.5625 24.6719 28.25C24.8229 27.9323 24.9245 27.5911 24.9766 27.2266ZM31.5234 24.6484L30.4219 31H28.0391L29.5078 22.5469H31.7344L31.5234 24.6484ZM34.2812 22.4766L33.9844 24.75C33.849 24.7292 33.7161 24.7109 33.5859 24.6953C33.4557 24.6797 33.3229 24.6719 33.1875 24.6719C32.8906 24.6667 32.6224 24.7031 32.3828 24.7812C32.1484 24.8542 31.9427 24.9661 31.7656 25.1172C31.5938 25.2682 31.4505 25.4557 31.3359 25.6797C31.2214 25.8984 31.1354 26.1484 31.0781 26.4297L30.6406 26.2109C30.6979 25.8099 30.7865 25.388 30.9062 24.9453C31.026 24.4974 31.1927 24.0781 31.4062 23.6875C31.625 23.2917 31.9036 22.974 32.2422 22.7344C32.5859 22.4896 33.0078 22.3672 33.5078 22.3672C33.638 22.3672 33.7656 22.3776 33.8906 22.3984C34.0208 22.4193 34.151 22.4453 34.2812 22.4766ZM37.3359 24.4531L36.2031 31H33.8125L35.2812 22.5469H37.5156L37.3359 24.4531ZM36.6953 26.4766L36.1328 26.5C36.1849 25.9896 36.2943 25.487 36.4609 24.9922C36.6328 24.4974 36.8646 24.0521 37.1562 23.6562C37.4531 23.2552 37.8177 22.9401 38.25 22.7109C38.6875 22.4766 39.1953 22.3672 39.7734 22.3828C40.2057 22.3932 40.5625 22.4844 40.8438 22.6562C41.1302 22.8229 41.3542 23.0443 41.5156 23.3203C41.6823 23.5964 41.7917 23.9115 41.8438 24.2656C41.8958 24.6146 41.9036 24.9792 41.8672 25.3594L40.9219 31H38.5391L39.4297 25.6484C39.4609 25.4036 39.4635 25.1797 39.4375 24.9766C39.4115 24.7734 39.3333 24.6068 39.2031 24.4766C39.0781 24.3464 38.8776 24.2786 38.6016 24.2734C38.2943 24.263 38.0312 24.3255 37.8125 24.4609C37.5938 24.5911 37.4089 24.7656 37.2578 24.9844C37.1068 25.2031 36.9844 25.4427 36.8906 25.7031C36.8021 25.9635 36.737 26.2214 36.6953 26.4766ZM41.5078 26.3516L40.7734 26.4219C40.8255 25.9167 40.9323 25.4245 41.0938 24.9453C41.2604 24.4609 41.4896 24.0234 41.7812 23.6328C42.0729 23.2422 42.4323 22.9349 42.8594 22.7109C43.2865 22.4818 43.7865 22.3724 44.3594 22.3828C44.8229 22.3984 45.2057 22.4974 45.5078 22.6797C45.8151 22.862 46.0495 23.1068 46.2109 23.4141C46.3776 23.7214 46.487 24.0677 46.5391 24.4531C46.5911 24.8333 46.5938 25.2292 46.5469 25.6406L45.6562 31H43.2578L44.1562 25.6328C44.1875 25.3932 44.1901 25.1719 44.1641 24.9688C44.138 24.7656 44.0625 24.6016 43.9375 24.4766C43.8125 24.3464 43.612 24.2786 43.3359 24.2734C43.0443 24.263 42.7917 24.3203 42.5781 24.4453C42.3646 24.5651 42.1849 24.7266 42.0391 24.9297C41.8932 25.1328 41.7786 25.3594 41.6953 25.6094C41.612 25.8542 41.5495 26.1016 41.5078 26.3516ZM51.2969 31.1562C50.7135 31.1458 50.1849 31.0365 49.7109 30.8281C49.2422 30.6198 48.8464 30.3333 48.5234 29.9688C48.2005 29.599 47.9635 29.1693 47.8125 28.6797C47.6615 28.1901 47.6068 27.6562 47.6484 27.0781L47.6797 26.7734C47.7422 26.1693 47.8854 25.6016 48.1094 25.0703C48.3385 24.5391 48.6432 24.0703 49.0234 23.6641C49.4036 23.2526 49.8516 22.9349 50.3672 22.7109C50.888 22.4818 51.4688 22.375 52.1094 22.3906C52.6979 22.401 53.2031 22.5208 53.625 22.75C54.0521 22.974 54.3958 23.2786 54.6562 23.6641C54.9219 24.0495 55.1042 24.487 55.2031 24.9766C55.3021 25.4661 55.3229 25.9844 55.2656 26.5312L55.125 27.5312H48.5078L48.7578 25.9609L52.9844 25.9688L53.0312 25.7578C53.0677 25.4922 53.0547 25.25 52.9922 25.0312C52.9297 24.8073 52.8125 24.6276 52.6406 24.4922C52.4688 24.3568 52.237 24.2839 51.9453 24.2734C51.6068 24.2682 51.3229 24.3411 51.0938 24.4922C50.8646 24.6432 50.6797 24.8464 50.5391 25.1016C50.3984 25.3516 50.2891 25.625 50.2109 25.9219C50.138 26.2135 50.0833 26.4974 50.0469 26.7734L50.0156 27.0703C49.9948 27.3411 50.0026 27.6042 50.0391 27.8594C50.0807 28.1146 50.1589 28.3464 50.2734 28.5547C50.3932 28.7578 50.5547 28.9245 50.7578 29.0547C50.9661 29.1797 51.224 29.2474 51.5312 29.2578C51.9323 29.2682 52.3047 29.1901 52.6484 29.0234C52.9974 28.8568 53.3099 28.6328 53.5859 28.3516L54.6172 29.6562C54.3776 30.0104 54.0755 30.2995 53.7109 30.5234C53.3464 30.7422 52.9531 30.9036 52.5312 31.0078C52.1146 31.112 51.7031 31.1615 51.2969 31.1562ZM61.2891 22.5469L60.9844 24.2578H56.1172L56.4141 22.5469H61.2891ZM57.8906 20.4531H60.2734L58.9141 28.3672C58.8932 28.5495 58.8932 28.7005 58.9141 28.8203C58.9401 28.9401 58.9974 29.0339 59.0859 29.1016C59.1797 29.1641 59.3229 29.2005 59.5156 29.2109C59.6302 29.2161 59.7422 29.2135 59.8516 29.2031C59.9609 29.1875 60.0703 29.1745 60.1797 29.1641L60.0078 30.9531C59.7943 31.0208 59.5755 31.0703 59.3516 31.1016C59.1328 31.1328 58.9089 31.1484 58.6797 31.1484C58.1641 31.138 57.737 31.0312 57.3984 30.8281C57.0599 30.6198 56.8151 30.3281 56.6641 29.9531C56.5182 29.5729 56.4688 29.1302 56.5156 28.625L57.8906 20.4531ZM7.20312 47.2734C7.20312 46.9141 7.15104 46.5938 7.04688 46.3125C6.94271 46.0312 6.77604 45.7786 6.54688 45.5547C6.31771 45.3255 6.01562 45.1172 5.64062 44.9297C5.26562 44.737 4.80729 44.5521 4.26562 44.375C3.77604 44.2188 3.33073 44.0521 2.92969 43.875C2.53385 43.6979 2.19531 43.4922 1.91406 43.2578C1.63802 43.0234 1.42448 42.7448 1.27344 42.4219C1.1224 42.0938 1.04688 41.7031 1.04688 41.25C1.04688 40.8125 1.1276 40.4219 1.28906 40.0781C1.45052 39.7344 1.67448 39.4427 1.96094 39.2031C2.2526 38.9635 2.59375 38.7812 2.98438 38.6562C3.38021 38.5312 3.80729 38.4688 4.26562 38.4688C4.89583 38.4688 5.45052 38.5833 5.92969 38.8125C6.41406 39.0417 6.79167 39.3828 7.0625 39.8359C7.33854 40.2891 7.47656 40.8542 7.47656 41.5312H7.07812C7.07812 40.9635 6.96094 40.4818 6.72656 40.0859C6.49219 39.6849 6.16406 39.3802 5.74219 39.1719C5.32031 38.9635 4.82812 38.8594 4.26562 38.8594C3.66146 38.8594 3.14844 38.9714 2.72656 39.1953C2.3099 39.4141 1.99219 39.7031 1.77344 40.0625C1.5599 40.4167 1.45312 40.7995 1.45312 41.2109C1.45312 41.5859 1.51562 41.9141 1.64062 42.1953C1.77083 42.4766 1.95833 42.724 2.20312 42.9375C2.45312 43.151 2.76042 43.3438 3.125 43.5156C3.48958 43.6875 3.91146 43.8516 4.39062 44.0078C4.94792 44.1641 5.42969 44.3464 5.83594 44.5547C6.24219 44.7578 6.57812 44.9922 6.84375 45.2578C7.10938 45.5234 7.30729 45.8229 7.4375 46.1562C7.56771 46.4844 7.63281 46.8516 7.63281 47.2578C7.63281 47.7266 7.54688 48.1406 7.375 48.5C7.20833 48.8594 6.97396 49.1615 6.67188 49.4062C6.36979 49.651 6.01823 49.8385 5.61719 49.9688C5.22135 50.0938 4.79688 50.1562 4.34375 50.1562C3.93229 50.1562 3.51562 50.1016 3.09375 49.9922C2.67708 49.8776 2.29167 49.6901 1.9375 49.4297C1.58854 49.1693 1.30729 48.8229 1.09375 48.3906C0.885417 47.9583 0.78125 47.4219 0.78125 46.7812H1.19531C1.19531 47.3594 1.29167 47.8411 1.48438 48.2266C1.68229 48.6068 1.9375 48.9089 2.25 49.1328C2.56771 49.3568 2.90885 49.5182 3.27344 49.6172C3.64323 49.7109 4 49.7578 4.34375 49.7578C4.90104 49.7578 5.39323 49.6536 5.82031 49.4453C6.2526 49.2318 6.59115 48.9401 6.83594 48.5703C7.08073 48.1953 7.20312 47.763 7.20312 47.2734ZM10 43.3516V50H9.58594V41.5469H9.99219L10 43.3516ZM9.92969 45.0234L9.71094 44.5703C9.7526 44.1589 9.84896 43.763 10 43.3828C10.151 43.0026 10.349 42.6641 10.5938 42.3672C10.8385 42.0651 11.1224 41.8281 11.4453 41.6562C11.7682 41.4792 12.125 41.3906 12.5156 41.3906C12.8802 41.3906 13.2031 41.4505 13.4844 41.5703C13.7708 41.6849 14.0104 41.8698 14.2031 42.125C14.3958 42.375 14.5417 42.7005 14.6406 43.1016C14.7448 43.4974 14.7969 43.974 14.7969 44.5312V50H14.3906V44.5234C14.3906 43.7995 14.3073 43.2396 14.1406 42.8438C13.9792 42.4479 13.7552 42.1719 13.4688 42.0156C13.1823 41.8594 12.849 41.7812 12.4688 41.7812C12.026 41.7812 11.6458 41.901 11.3281 42.1406C11.0156 42.3802 10.7578 42.6797 10.5547 43.0391C10.3516 43.3932 10.1979 43.7526 10.0938 44.1172C9.99479 44.4766 9.9401 44.7786 9.92969 45.0234ZM21.8125 48.4062V43.8203C21.8125 43.3464 21.7292 42.9609 21.5625 42.6641C21.3958 42.3672 21.151 42.1484 20.8281 42.0078C20.5104 41.862 20.1198 41.7891 19.6562 41.7891C19.2292 41.7891 18.8464 41.875 18.5078 42.0469C18.1693 42.2135 17.901 42.4531 17.7031 42.7656C17.5052 43.0781 17.4062 43.4479 17.4062 43.875L17.0078 43.8516C17.0078 43.5026 17.0729 43.1797 17.2031 42.8828C17.3333 42.5807 17.5156 42.3203 17.75 42.1016C17.9896 41.8776 18.2708 41.7031 18.5938 41.5781C18.9219 41.4531 19.2812 41.3906 19.6719 41.3906C20.1667 41.3906 20.6042 41.4714 20.9844 41.6328C21.3646 41.7943 21.6641 42.0547 21.8828 42.4141C22.1016 42.7682 22.2109 43.2422 22.2109 43.8359V48.3047C22.2109 48.612 22.2266 48.9167 22.2578 49.2188C22.2943 49.5208 22.3411 49.7578 22.3984 49.9297V50H21.9453C21.8984 49.7969 21.8646 49.5495 21.8438 49.2578C21.8229 48.9661 21.8125 48.6823 21.8125 48.4062ZM21.9688 45.2891L21.9844 45.7031H19.9688C19.4896 45.7031 19.0755 45.7578 18.7266 45.8672C18.3828 45.9766 18.099 46.1302 17.875 46.3281C17.651 46.5208 17.4844 46.7526 17.375 47.0234C17.2708 47.2891 17.2188 47.5807 17.2188 47.8984C17.2188 48.3099 17.2943 48.6536 17.4453 48.9297C17.6016 49.2057 17.8151 49.4141 18.0859 49.5547C18.362 49.6953 18.6771 49.7656 19.0312 49.7656C19.5312 49.7656 19.974 49.6745 20.3594 49.4922C20.7448 49.3047 21.0677 49.0443 21.3281 48.7109C21.5938 48.3724 21.7943 47.974 21.9297 47.5156L22.1094 47.8984C22.026 48.1693 21.901 48.4401 21.7344 48.7109C21.5677 48.9766 21.3568 49.2214 21.1016 49.4453C20.8516 49.6641 20.5547 49.8411 20.2109 49.9766C19.8672 50.1068 19.474 50.1719 19.0312 50.1719C18.5885 50.1719 18.2005 50.0859 17.8672 49.9141C17.5339 49.7422 17.276 49.487 17.0938 49.1484C16.9115 48.8047 16.8203 48.375 16.8203 47.8594C16.8203 47.4844 16.8854 47.1406 17.0156 46.8281C17.151 46.5156 17.349 46.2448 17.6094 46.0156C17.8698 45.7812 18.1927 45.6016 18.5781 45.4766C18.9688 45.3516 19.4193 45.2891 19.9297 45.2891H21.9688ZM27.2656 49.7656C27.6354 49.7656 27.987 49.7031 28.3203 49.5781C28.6589 49.4479 28.9375 49.2161 29.1562 48.8828C29.3802 48.5443 29.5052 48.0651 29.5312 47.4453H29.9375C29.9115 48.0859 29.7734 48.6068 29.5234 49.0078C29.2786 49.4089 28.9583 49.7031 28.5625 49.8906C28.1667 50.0781 27.7344 50.1719 27.2656 50.1719C26.7969 50.1719 26.3776 50.0911 26.0078 49.9297C25.6432 49.7682 25.3359 49.526 25.0859 49.2031C24.8359 48.875 24.6458 48.4635 24.5156 47.9688C24.3854 47.474 24.3203 46.8932 24.3203 46.2266V45.3203C24.3203 44.6536 24.3854 44.0729 24.5156 43.5781C24.6458 43.0833 24.8359 42.6745 25.0859 42.3516C25.3359 42.0286 25.6432 41.7891 26.0078 41.6328C26.3776 41.4714 26.7969 41.3906 27.2656 41.3906C27.7292 41.3906 28.1589 41.4844 28.5547 41.6719C28.9505 41.8594 29.2734 42.1693 29.5234 42.6016C29.7786 43.0286 29.9167 43.6068 29.9375 44.3359H29.5312C29.5104 43.6901 29.3906 43.1823 29.1719 42.8125C28.9531 42.4427 28.6771 42.1797 28.3438 42.0234C28.0104 41.8672 27.651 41.7891 27.2656 41.7891C26.8281 41.7891 26.4479 41.8646 26.125 42.0156C25.8073 42.1615 25.5443 42.3828 25.3359 42.6797C25.1276 42.9766 24.9714 43.3464 24.8672 43.7891C24.7682 44.2266 24.7188 44.737 24.7188 45.3203V46.2266C24.7188 46.8099 24.7682 47.3229 24.8672 47.7656C24.9714 48.2083 25.1276 48.5781 25.3359 48.875C25.5443 49.1719 25.8073 49.3958 26.125 49.5469C26.4479 49.6927 26.8281 49.7656 27.2656 49.7656ZM32.4141 38V50H32.0078V38H32.4141ZM37.0156 41.5469L33.4609 45.4375L32.3281 46.5312L32.2031 46.2578L33.25 45.1172L36.4453 41.5469H37.0156ZM36.7109 50L33.3359 45.2344L33.5859 44.9219L37.2266 50H36.7109Z" fill="white"/>
</svg>
