<svg width="122" height="100" viewBox="0 0 122 100" fill="none" xmlns="http://www.w3.org/2000/svg">
<path d="M1.85938 0.25H8.04688C9.28646 0.25 10.3802 0.505208 11.3281 1.01562C12.2865 1.51562 13.0365 2.25521 13.5781 3.23438C14.1198 4.20312 14.3906 5.39583 14.3906 6.8125C14.3906 7.90625 14.1875 8.90104 13.7812 9.79688C13.3854 10.6927 12.8438 11.4271 12.1562 12C11.4792 12.5729 10.7188 12.9219 9.875 13.0469L9.45312 13.25H2.125L2.09375 12.4531H8.65625C9.75 12.4531 10.6615 12.1771 11.3906 11.625C12.1198 11.0729 12.6667 10.3698 13.0312 9.51562C13.4062 8.65104 13.5938 7.75 13.5938 6.8125C13.5938 5.60417 13.3646 4.57292 12.9062 3.71875C12.4583 2.85417 11.8177 2.19271 10.9844 1.73438C10.151 1.26562 9.17188 1.03125 8.04688 1.03125H2.67188V23H1.85938V0.25ZM14.3438 23L9.0625 12.9844L10 12.9688L15.2031 22.7812V23H14.3438ZM25.0469 23.3438C24.1615 23.3438 23.3333 23.1823 22.5625 22.8594C21.8021 22.5365 21.1354 22.0521 20.5625 21.4062C19.9896 20.75 19.5417 19.9323 19.2188 18.9531C18.8958 17.9635 18.7344 16.8125 18.7344 15.5V13.5938C18.7344 12.2812 18.8906 11.1354 19.2031 10.1562C19.5156 9.17708 19.9479 8.36458 20.5 7.71875C21.0625 7.07292 21.7083 6.58854 22.4375 6.26562C23.1667 5.94271 23.9427 5.78125 24.7656 5.78125C25.5781 5.78125 26.3177 5.91146 26.9844 6.17188C27.651 6.43229 28.2292 6.83854 28.7188 7.39062C29.2083 7.93229 29.5833 8.64062 29.8438 9.51562C30.1042 10.3906 30.2344 11.4479 30.2344 12.6875V13.9375H19.2656V13.1406H29.4219V12.6719C29.4219 11.3281 29.2292 10.2031 28.8438 9.29688C28.4688 8.39062 27.9323 7.71354 27.2344 7.26562C26.5365 6.80729 25.7135 6.57812 24.7656 6.57812C23.9844 6.57812 23.276 6.73438 22.6406 7.04688C22.0052 7.34896 21.4531 7.79688 20.9844 8.39062C20.526 8.98438 20.1719 9.71875 19.9219 10.5938C19.6719 11.4688 19.5469 12.4688 19.5469 13.5938V15.5C19.5469 16.6562 19.6823 17.6771 19.9531 18.5625C20.2344 19.4375 20.625 20.1719 21.125 20.7656C21.625 21.349 22.2083 21.7917 22.875 22.0938C23.5521 22.3854 24.2812 22.5312 25.0625 22.5312C25.875 22.5312 26.6354 22.4115 27.3438 22.1719C28.0521 21.9323 28.6927 21.4792 29.2656 20.8125L29.7188 21.2969C29.4062 21.6927 29.0312 22.0469 28.5938 22.3594C28.1562 22.6719 27.6458 22.9115 27.0625 23.0781C26.4792 23.2552 25.8073 23.3438 25.0469 23.3438ZM43.0781 18.8594C43.0781 18.2865 42.9583 17.7552 42.7188 17.2656C42.4792 16.7656 42.0469 16.2917 41.4219 15.8438C40.8073 15.3958 39.9167 14.9583 38.75 14.5312C37.9062 14.2188 37.1667 13.8958 36.5312 13.5625C35.9062 13.2292 35.3802 12.875 34.9531 12.5C34.5365 12.125 34.224 11.7188 34.0156 11.2812C33.8073 10.8438 33.7031 10.3646 33.7031 9.84375C33.7031 9.25 33.8125 8.70833 34.0312 8.21875C34.25 7.71875 34.5677 7.28646 34.9844 6.92188C35.401 6.55729 35.9062 6.27604 36.5 6.07812C37.0938 5.88021 37.7656 5.78125 38.5156 5.78125C39.5885 5.78125 40.5052 5.95312 41.2656 6.29688C42.0365 6.64062 42.6302 7.14062 43.0469 7.79688C43.4635 8.45312 43.6719 9.26042 43.6719 10.2188H42.8438C42.8438 9.40625 42.6771 8.73438 42.3438 8.20312C42.0104 7.66146 41.5208 7.25521 40.875 6.98438C40.2396 6.71354 39.4531 6.57812 38.5156 6.57812C37.5677 6.57812 36.7969 6.73958 36.2031 7.0625C35.6198 7.375 35.1875 7.77604 34.9062 8.26562C34.6354 8.75521 34.5 9.26562 34.5 9.79688C34.5 10.2031 34.5729 10.5833 34.7188 10.9375C34.875 11.2917 35.125 11.6354 35.4688 11.9688C35.8125 12.2917 36.276 12.6094 36.8594 12.9219C37.4427 13.2344 38.1667 13.5469 39.0312 13.8594C40.2083 14.2865 41.151 14.7448 41.8594 15.2344C42.5781 15.7135 43.0938 16.25 43.4062 16.8438C43.7292 17.4375 43.8906 18.1146 43.8906 18.875C43.8906 19.5312 43.7708 20.1302 43.5312 20.6719C43.3021 21.2135 42.9635 21.6823 42.5156 22.0781C42.0781 22.474 41.5469 22.7812 40.9219 23C40.2969 23.2083 39.599 23.3125 38.8281 23.3125C37.6615 23.3125 36.6719 23.1146 35.8594 22.7188C35.0573 22.3229 34.4479 21.7917 34.0312 21.125C33.625 20.4479 33.4219 19.7031 33.4219 18.8906H34.2344C34.2865 19.8594 34.5469 20.6042 35.0156 21.125C35.4948 21.6458 36.0781 22.0104 36.7656 22.2188C37.4531 22.4167 38.1406 22.5156 38.8281 22.5156C39.724 22.5156 40.4844 22.3594 41.1094 22.0469C41.7448 21.7344 42.2292 21.3021 42.5625 20.75C42.9062 20.1979 43.0781 19.5677 43.0781 18.8594ZM53.6719 23.3438C52.7865 23.3438 51.9583 23.1823 51.1875 22.8594C50.4271 22.5365 49.7604 22.0521 49.1875 21.4062C48.6146 20.75 48.1667 19.9323 47.8438 18.9531C47.5208 17.9635 47.3594 16.8125 47.3594 15.5V13.5938C47.3594 12.2812 47.5156 11.1354 47.8281 10.1562C48.1406 9.17708 48.5729 8.36458 49.125 7.71875C49.6875 7.07292 50.3333 6.58854 51.0625 6.26562C51.7917 5.94271 52.5677 5.78125 53.3906 5.78125C54.2031 5.78125 54.9427 5.91146 55.6094 6.17188C56.276 6.43229 56.8542 6.83854 57.3438 7.39062C57.8333 7.93229 58.2083 8.64062 58.4688 9.51562C58.7292 10.3906 58.8594 11.4479 58.8594 12.6875V13.9375H47.8906V13.1406H58.0469V12.6719C58.0469 11.3281 57.8542 10.2031 57.4688 9.29688C57.0938 8.39062 56.5573 7.71354 55.8594 7.26562C55.1615 6.80729 54.3385 6.57812 53.3906 6.57812C52.6094 6.57812 51.901 6.73438 51.2656 7.04688C50.6302 7.34896 50.0781 7.79688 49.6094 8.39062C49.151 8.98438 48.7969 9.71875 48.5469 10.5938C48.2969 11.4688 48.1719 12.4688 48.1719 13.5938V15.5C48.1719 16.6562 48.3073 17.6771 48.5781 18.5625C48.8594 19.4375 49.25 20.1719 49.75 20.7656C50.25 21.349 50.8333 21.7917 51.5 22.0938C52.1771 22.3854 52.9062 22.5312 53.6875 22.5312C54.5 22.5312 55.2604 22.4115 55.9688 22.1719C56.6771 21.9323 57.3177 21.4792 57.8906 20.8125L58.3438 21.2969C58.0312 21.6927 57.6562 22.0469 57.2188 22.3594C56.7812 22.6719 56.2708 22.9115 55.6875 23.0781C55.1042 23.2552 54.4323 23.3438 53.6719 23.3438ZM63.75 9.04688V23H62.9219V6.09375H63.75V9.04688ZM69.375 5.92188L69.2656 6.65625C69.1302 6.61458 68.9844 6.58854 68.8281 6.57812C68.6719 6.55729 68.5052 6.54688 68.3281 6.54688C67.5469 6.54688 66.8594 6.74479 66.2656 7.14062C65.6719 7.52604 65.1771 8.0625 64.7812 8.75C64.3854 9.42708 64.0885 10.2135 63.8906 11.1094C63.6927 12.0052 63.5938 12.9583 63.5938 13.9688L63.1094 14C63.1094 12.8125 63.2135 11.7188 63.4219 10.7188C63.6406 9.71875 63.9688 8.84896 64.4062 8.10938C64.8438 7.36979 65.3906 6.79688 66.0469 6.39062C66.7031 5.98438 67.474 5.78125 68.3594 5.78125C68.5677 5.78125 68.7552 5.79167 68.9219 5.8125C69.099 5.83333 69.25 5.86979 69.375 5.92188ZM77.0156 22.0469L82.2188 6.09375H83.0781L77.5156 23H76.7812L77.0156 22.0469ZM72.0781 6.09375L77.2969 22.0469L77.5 23H76.75L71.2031 6.09375H72.0781ZM91.4844 23.3438C90.599 23.3438 89.7708 23.1823 89 22.8594C88.2396 22.5365 87.5729 22.0521 87 21.4062C86.4271 20.75 85.9792 19.9323 85.6562 18.9531C85.3333 17.9635 85.1719 16.8125 85.1719 15.5V13.5938C85.1719 12.2812 85.3281 11.1354 85.6406 10.1562C85.9531 9.17708 86.3854 8.36458 86.9375 7.71875C87.5 7.07292 88.1458 6.58854 88.875 6.26562C89.6042 5.94271 90.3802 5.78125 91.2031 5.78125C92.0156 5.78125 92.7552 5.91146 93.4219 6.17188C94.0885 6.43229 94.6667 6.83854 95.1562 7.39062C95.6458 7.93229 96.0208 8.64062 96.2812 9.51562C96.5417 10.3906 96.6719 11.4479 96.6719 12.6875V13.9375H85.7031V13.1406H95.8594V12.6719C95.8594 11.3281 95.6667 10.2031 95.2812 9.29688C94.9062 8.39062 94.3698 7.71354 93.6719 7.26562C92.974 6.80729 92.151 6.57812 91.2031 6.57812C90.4219 6.57812 89.7135 6.73438 89.0781 7.04688C88.4427 7.34896 87.8906 7.79688 87.4219 8.39062C86.9635 8.98438 86.6094 9.71875 86.3594 10.5938C86.1094 11.4688 85.9844 12.4688 85.9844 13.5938V15.5C85.9844 16.6562 86.1198 17.6771 86.3906 18.5625C86.6719 19.4375 87.0625 20.1719 87.5625 20.7656C88.0625 21.349 88.6458 21.7917 89.3125 22.0938C89.9896 22.3854 90.7188 22.5312 91.5 22.5312C92.3125 22.5312 93.0729 22.4115 93.7812 22.1719C94.4896 21.9323 95.1302 21.4792 95.7031 20.8125L96.1562 21.2969C95.8438 21.6927 95.4688 22.0469 95.0312 22.3594C94.5938 22.6719 94.0833 22.9115 93.5 23.0781C92.9167 23.2552 92.2448 23.3438 91.4844 23.3438ZM19.0781 48.9844L17.625 58.1719C16.9375 58.9948 16.0781 59.6354 15.0469 60.0938C14.0156 60.5521 12.9323 60.8698 11.7969 61.0469C10.6719 61.2344 9.60417 61.3177 8.59375 61.2969C7.02083 61.276 5.6875 60.9635 4.59375 60.3594C3.5 59.7552 2.625 58.9375 1.96875 57.9062C1.32292 56.875 0.885417 55.7083 0.65625 54.4062C0.4375 53.0938 0.416667 51.724 0.59375 50.2969L0.78125 48.9688C0.979167 47.5 1.35938 46.099 1.92188 44.7656C2.49479 43.4323 3.23958 42.25 4.15625 41.2188C5.08333 40.1771 6.17708 39.3594 7.4375 38.7656C8.70833 38.1719 10.1458 37.8906 11.75 37.9219C13.3958 37.9427 14.7917 38.2552 15.9375 38.8594C17.0938 39.4635 17.9896 40.3333 18.625 41.4688C19.2604 42.5938 19.6302 43.9635 19.7344 45.5781L14.9844 45.5625C14.9219 44.8438 14.776 44.2135 14.5469 43.6719C14.3281 43.1198 13.9844 42.6875 13.5156 42.375C13.0469 42.0521 12.4167 41.875 11.625 41.8438C10.6667 41.8021 9.84375 42 9.15625 42.4375C8.47917 42.8646 7.91146 43.4375 7.45312 44.1562C6.99479 44.8646 6.63542 45.6406 6.375 46.4844C6.11458 47.3281 5.92708 48.1406 5.8125 48.9219L5.625 50.3125C5.54167 51.0417 5.49479 51.8125 5.48438 52.625C5.48438 53.4375 5.58854 54.1979 5.79688 54.9062C6.00521 55.6146 6.36979 56.1979 6.89062 56.6562C7.42188 57.1042 8.16667 57.3385 9.125 57.3594C9.57292 57.3698 10.0052 57.3438 10.4219 57.2812C10.8385 57.2083 11.2396 57.0938 11.625 56.9375C12.0208 56.7812 12.401 56.5781 12.7656 56.3281L13.5 52.5312H9.5625L10.1875 48.9844H19.0781ZM20.8906 52.8125L20.9219 52.4844C21.0573 51.276 21.3542 50.1406 21.8125 49.0781C22.2708 48.0156 22.8802 47.0833 23.6406 46.2812C24.401 45.4792 25.2969 44.8542 26.3281 44.4062C27.3594 43.9583 28.5156 43.75 29.7969 43.7812C31.026 43.8021 32.0885 44.0469 32.9844 44.5156C33.8906 44.974 34.6302 45.599 35.2031 46.3906C35.776 47.1823 36.1823 48.0885 36.4219 49.1094C36.6615 50.1302 36.7292 51.2135 36.625 52.3594L36.5938 52.7031C36.4583 53.901 36.1562 55.026 35.6875 56.0781C35.2188 57.1302 34.6042 58.0521 33.8438 58.8438C33.0833 59.6354 32.1875 60.2552 31.1562 60.7031C30.125 61.1406 28.974 61.3438 27.7031 61.3125C26.4844 61.2917 25.4219 61.0521 24.5156 60.5938C23.6198 60.1354 22.8854 59.5156 22.3125 58.7344C21.7396 57.9531 21.3333 57.0573 21.0938 56.0469C20.8542 55.0365 20.7865 53.9583 20.8906 52.8125ZM25.6875 52.4844L25.6562 52.8125C25.625 53.2812 25.6094 53.7865 25.6094 54.3281C25.6198 54.8594 25.6927 55.3698 25.8281 55.8594C25.974 56.349 26.2135 56.75 26.5469 57.0625C26.8906 57.3646 27.3698 57.526 27.9844 57.5469C28.651 57.5677 29.2135 57.4323 29.6719 57.1406C30.1302 56.849 30.5052 56.4583 30.7969 55.9688C31.099 55.4688 31.3281 54.9323 31.4844 54.3594C31.651 53.7865 31.7604 53.2292 31.8125 52.6875L31.8438 52.3594C31.8854 51.901 31.901 51.401 31.8906 50.8594C31.8906 50.3073 31.8177 49.7865 31.6719 49.2969C31.5365 48.7969 31.2969 48.3906 30.9531 48.0781C30.6094 47.7552 30.1302 47.5833 29.5156 47.5625C28.849 47.5417 28.2812 47.6823 27.8125 47.9844C27.3542 48.2865 26.9792 48.6875 26.6875 49.1875C26.3958 49.6875 26.1719 50.2292 26.0156 50.8125C25.8594 51.3854 25.75 51.9427 25.6875 52.4844ZM47.9688 56.6719L50.1562 44.0938H54.9375L52 61H47.5469L47.9688 56.6719ZM48.9531 53.4531L50.2656 53.4219C50.151 54.3906 49.9323 55.3542 49.6094 56.3125C49.2969 57.2604 48.8594 58.1146 48.2969 58.875C47.7448 59.6354 47.0521 60.2396 46.2188 60.6875C45.3958 61.1354 44.4219 61.349 43.2969 61.3281C42.3698 61.3073 41.5885 61.1302 40.9531 60.7969C40.3177 60.4635 39.8073 60.0052 39.4219 59.4219C39.0469 58.8385 38.7917 58.1719 38.6562 57.4219C38.5312 56.6719 38.5104 55.875 38.5938 55.0312L40.4219 44.0938H45.1875L43.3281 55.0938C43.2969 55.4167 43.2969 55.724 43.3281 56.0156C43.3698 56.3073 43.4531 56.5625 43.5781 56.7812C43.7031 57 43.8802 57.1771 44.1094 57.3125C44.349 57.4375 44.6562 57.5052 45.0312 57.5156C45.875 57.5573 46.5625 57.3906 47.0938 57.0156C47.6354 56.6302 48.0521 56.125 48.3438 55.5C48.6458 54.8646 48.849 54.1823 48.9531 53.4531ZM62.0469 48.2969L59.8438 61H55.0781L58.0156 44.0938H62.4688L62.0469 48.2969ZM67.5625 43.9531L66.9688 48.5C66.6979 48.4583 66.4323 48.4219 66.1719 48.3906C65.9115 48.3594 65.6458 48.3438 65.375 48.3438C64.7812 48.3333 64.2448 48.4062 63.7656 48.5625C63.2969 48.7083 62.8854 48.9323 62.5312 49.2344C62.1875 49.5365 61.901 49.9115 61.6719 50.3594C61.4427 50.7969 61.2708 51.2969 61.1562 51.8594L60.2812 51.4219C60.3958 50.6198 60.5729 49.776 60.8125 48.8906C61.0521 47.9948 61.3854 47.1562 61.8125 46.375C62.25 45.5833 62.8073 44.9479 63.4844 44.4688C64.1719 43.9792 65.0156 43.7344 66.0156 43.7344C66.276 43.7344 66.5312 43.7552 66.7812 43.7969C67.0417 43.8385 67.3021 43.8906 67.5625 43.9531ZM73.6719 47.9062L71.4062 61H66.625L69.5625 44.0938H74.0312L73.6719 47.9062ZM72.3906 51.9531L71.2656 52C71.3698 50.9792 71.5885 49.974 71.9219 48.9844C72.2656 47.9948 72.7292 47.1042 73.3125 46.3125C73.9062 45.5104 74.6354 44.8802 75.5 44.4219C76.375 43.9531 77.3906 43.7344 78.5469 43.7656C79.4115 43.7865 80.125 43.9688 80.6875 44.3125C81.2604 44.6458 81.7083 45.0885 82.0312 45.6406C82.3646 46.1927 82.5833 46.8229 82.6875 47.5312C82.7917 48.2292 82.8073 48.9583 82.7344 49.7188L80.8438 61H76.0781L77.8594 50.2969C77.9219 49.8073 77.9271 49.3594 77.875 48.9531C77.8229 48.5469 77.6667 48.2135 77.4062 47.9531C77.1562 47.6927 76.7552 47.5573 76.2031 47.5469C75.5885 47.526 75.0625 47.651 74.625 47.9219C74.1875 48.1823 73.8177 48.5312 73.5156 48.9688C73.2135 49.4062 72.9688 49.8854 72.7812 50.4062C72.6042 50.9271 72.474 51.4427 72.3906 51.9531ZM82.0156 51.7031L80.5469 51.8438C80.651 50.8333 80.8646 49.849 81.1875 48.8906C81.5208 47.9219 81.9792 47.0469 82.5625 46.2656C83.1458 45.4844 83.8646 44.8698 84.7188 44.4219C85.5729 43.9635 86.5729 43.7448 87.7188 43.7656C88.6458 43.7969 89.4115 43.9948 90.0156 44.3594C90.6302 44.724 91.099 45.2135 91.4219 45.8281C91.7552 46.4427 91.974 47.1354 92.0781 47.9062C92.1823 48.6667 92.1875 49.4583 92.0938 50.2812L90.3125 61H85.5156L87.3125 50.2656C87.375 49.7865 87.3802 49.3438 87.3281 48.9375C87.276 48.5312 87.125 48.2031 86.875 47.9531C86.625 47.6927 86.224 47.5573 85.6719 47.5469C85.0885 47.526 84.5833 47.6406 84.1562 47.8906C83.7292 48.1302 83.3698 48.4531 83.0781 48.8594C82.7865 49.2656 82.5573 49.7188 82.3906 50.2188C82.224 50.7083 82.099 51.2031 82.0156 51.7031ZM101.594 61.3125C100.427 61.2917 99.3698 61.0729 98.4219 60.6562C97.4844 60.2396 96.6927 59.6667 96.0469 58.9375C95.401 58.1979 94.9271 57.3385 94.625 56.3594C94.3229 55.3802 94.2135 54.3125 94.2969 53.1562L94.3594 52.5469C94.4844 51.3385 94.7708 50.2031 95.2188 49.1406C95.6771 48.0781 96.2865 47.1406 97.0469 46.3281C97.8073 45.5052 98.7031 44.8698 99.7344 44.4219C100.776 43.9635 101.938 43.75 103.219 43.7812C104.396 43.8021 105.406 44.0417 106.25 44.5C107.104 44.9479 107.792 45.5573 108.312 46.3281C108.844 47.099 109.208 47.974 109.406 48.9531C109.604 49.9323 109.646 50.9688 109.531 52.0625L109.25 54.0625H96.0156L96.5156 50.9219L104.969 50.9375L105.062 50.5156C105.135 49.9844 105.109 49.5 104.984 49.0625C104.859 48.6146 104.625 48.2552 104.281 47.9844C103.938 47.7135 103.474 47.5677 102.891 47.5469C102.214 47.5365 101.646 47.6823 101.188 47.9844C100.729 48.2865 100.359 48.6927 100.078 49.2031C99.7969 49.7031 99.5781 50.25 99.4219 50.8438C99.276 51.4271 99.1667 51.9948 99.0938 52.5469L99.0312 53.1406C98.9896 53.6823 99.0052 54.2083 99.0781 54.7188C99.1615 55.2292 99.3177 55.6927 99.5469 56.1094C99.7865 56.5156 100.109 56.849 100.516 57.1094C100.932 57.3594 101.448 57.4948 102.062 57.5156C102.865 57.5365 103.609 57.3802 104.297 57.0469C104.995 56.7135 105.62 56.2656 106.172 55.7031L108.234 58.3125C107.755 59.0208 107.151 59.599 106.422 60.0469C105.693 60.4844 104.906 60.8073 104.062 61.0156C103.229 61.224 102.406 61.3229 101.594 61.3125ZM121.578 44.0938L120.969 47.5156H111.234L111.828 44.0938H121.578ZM114.781 39.9062H119.547L116.828 55.7344C116.786 56.099 116.786 56.401 116.828 56.6406C116.88 56.8802 116.995 57.0677 117.172 57.2031C117.359 57.3281 117.646 57.401 118.031 57.4219C118.26 57.4323 118.484 57.4271 118.703 57.4062C118.922 57.375 119.141 57.349 119.359 57.3281L119.016 60.9062C118.589 61.0417 118.151 61.1406 117.703 61.2031C117.266 61.2656 116.818 61.2969 116.359 61.2969C115.328 61.276 114.474 61.0625 113.797 60.6562C113.12 60.2396 112.63 59.6562 112.328 58.9062C112.036 58.1458 111.938 57.2604 112.031 56.25L114.781 39.9062ZM13.4062 93.5469C13.4062 92.8281 13.3021 92.1875 13.0938 91.625C12.8854 91.0625 12.5521 90.5573 12.0938 90.1094C11.6354 89.651 11.0312 89.2344 10.2812 88.8594C9.53125 88.474 8.61458 88.1042 7.53125 87.75C6.55208 87.4375 5.66146 87.1042 4.85938 86.75C4.06771 86.3958 3.39062 85.9844 2.82812 85.5156C2.27604 85.0469 1.84896 84.4896 1.54688 83.8438C1.24479 83.1875 1.09375 82.4062 1.09375 81.5C1.09375 80.625 1.25521 79.8438 1.57812 79.1562C1.90104 78.4688 2.34896 77.8854 2.92188 77.4062C3.50521 76.9271 4.1875 76.5625 4.96875 76.3125C5.76042 76.0625 6.61458 75.9375 7.53125 75.9375C8.79167 75.9375 9.90104 76.1667 10.8594 76.625C11.8281 77.0833 12.5833 77.7656 13.125 78.6719C13.6771 79.5781 13.9531 80.7083 13.9531 82.0625H13.1562C13.1562 80.9271 12.9219 79.9635 12.4531 79.1719C11.9844 78.3698 11.3281 77.7604 10.4844 77.3438C9.64062 76.9271 8.65625 76.7188 7.53125 76.7188C6.32292 76.7188 5.29688 76.9427 4.45312 77.3906C3.61979 77.8281 2.98438 78.4062 2.54688 79.125C2.11979 79.8333 1.90625 80.599 1.90625 81.4219C1.90625 82.1719 2.03125 82.8281 2.28125 83.3906C2.54167 83.9531 2.91667 84.4479 3.40625 84.875C3.90625 85.3021 4.52083 85.6875 5.25 86.0312C5.97917 86.375 6.82292 86.7031 7.78125 87.0156C8.89583 87.3281 9.85938 87.6927 10.6719 88.1094C11.4844 88.5156 12.1562 88.9844 12.6875 89.5156C13.2188 90.0469 13.6146 90.6458 13.875 91.3125C14.1354 91.9688 14.2656 92.7031 14.2656 93.5156C14.2656 94.4531 14.0938 95.2812 13.75 96C13.4167 96.7188 12.9479 97.3229 12.3438 97.8125C11.7396 98.3021 11.0365 98.6771 10.2344 98.9375C9.44271 99.1875 8.59375 99.3125 7.6875 99.3125C6.86458 99.3125 6.03125 99.2031 5.1875 98.9844C4.35417 98.7552 3.58333 98.3802 2.875 97.8594C2.17708 97.3385 1.61458 96.6458 1.1875 95.7812C0.770833 94.9167 0.5625 93.8438 0.5625 92.5625H1.39062C1.39062 93.7188 1.58333 94.6823 1.96875 95.4531C2.36458 96.2135 2.875 96.8177 3.5 97.2656C4.13542 97.7135 4.81771 98.0365 5.54688 98.2344C6.28646 98.4219 7 98.5156 7.6875 98.5156C8.80208 98.5156 9.78646 98.3073 10.6406 97.8906C11.5052 97.4635 12.1823 96.8802 12.6719 96.1406C13.1615 95.3906 13.4062 94.526 13.4062 93.5469ZM19 85.7031V99H18.1719V82.0938H18.9844L19 85.7031ZM18.8594 89.0469L18.4219 88.1406C18.5052 87.3177 18.6979 86.526 19 85.7656C19.3021 85.0052 19.6979 84.3281 20.1875 83.7344C20.6771 83.1302 21.2448 82.6562 21.8906 82.3125C22.5365 81.9583 23.25 81.7812 24.0312 81.7812C24.7604 81.7812 25.4062 81.901 25.9688 82.1406C26.5417 82.3698 27.0208 82.7396 27.4062 83.25C27.7917 83.75 28.0833 84.401 28.2812 85.2031C28.4896 85.9948 28.5938 86.9479 28.5938 88.0625V99H27.7812V88.0469C27.7812 86.599 27.6146 85.4792 27.2812 84.6875C26.9583 83.8958 26.5104 83.3438 25.9375 83.0312C25.3646 82.7188 24.6979 82.5625 23.9375 82.5625C23.0521 82.5625 22.2917 82.8021 21.6562 83.2812C21.0312 83.7604 20.5156 84.3594 20.1094 85.0781C19.7031 85.7865 19.3958 86.5052 19.1875 87.2344C18.9896 87.9531 18.8802 88.5573 18.8594 89.0469ZM42.625 95.8125V86.6406C42.625 85.6927 42.4583 84.9219 42.125 84.3281C41.7917 83.7344 41.3021 83.2969 40.6562 83.0156C40.0208 82.724 39.2396 82.5781 38.3125 82.5781C37.4583 82.5781 36.6927 82.75 36.0156 83.0938C35.3385 83.4271 34.8021 83.9062 34.4062 84.5312C34.0104 85.1562 33.8125 85.8958 33.8125 86.75L33.0156 86.7031C33.0156 86.0052 33.1458 85.3594 33.4062 84.7656C33.6667 84.1615 34.0312 83.6406 34.5 83.2031C34.9792 82.7552 35.5417 82.4062 36.1875 82.1562C36.8438 81.9062 37.5625 81.7812 38.3438 81.7812C39.3333 81.7812 40.2083 81.9427 40.9688 82.2656C41.7292 82.5885 42.3281 83.1094 42.7656 83.8281C43.2031 84.5365 43.4219 85.4844 43.4219 86.6719V95.6094C43.4219 96.224 43.4531 96.8333 43.5156 97.4375C43.5885 98.0417 43.6823 98.5156 43.7969 98.8594V99H42.8906C42.7969 98.5938 42.7292 98.099 42.6875 97.5156C42.6458 96.9323 42.625 96.3646 42.625 95.8125ZM42.9375 89.5781L42.9688 90.4062H38.9375C37.9792 90.4062 37.151 90.5156 36.4531 90.7344C35.7656 90.9531 35.1979 91.2604 34.75 91.6562C34.3021 92.0417 33.9688 92.5052 33.75 93.0469C33.5417 93.5781 33.4375 94.1615 33.4375 94.7969C33.4375 95.6198 33.5885 96.3073 33.8906 96.8594C34.2031 97.4115 34.6302 97.8281 35.1719 98.1094C35.724 98.3906 36.3542 98.5312 37.0625 98.5312C38.0625 98.5312 38.9479 98.349 39.7188 97.9844C40.4896 97.6094 41.1354 97.0885 41.6562 96.4219C42.1875 95.7448 42.5885 94.9479 42.8594 94.0312L43.2188 94.7969C43.0521 95.3385 42.8021 95.8802 42.4688 96.4219C42.1354 96.9531 41.7135 97.4427 41.2031 97.8906C40.7031 98.3281 40.1094 98.6823 39.4219 98.9531C38.7344 99.2135 37.9479 99.3438 37.0625 99.3438C36.1771 99.3438 35.401 99.1719 34.7344 98.8281C34.0677 98.4844 33.5521 97.974 33.1875 97.2969C32.8229 96.6094 32.6406 95.75 32.6406 94.7188C32.6406 93.9688 32.7708 93.2812 33.0312 92.6562C33.3021 92.0312 33.6979 91.4896 34.2188 91.0312C34.7396 90.5625 35.3854 90.2031 36.1562 89.9531C36.9375 89.7031 37.8385 89.5781 38.8594 89.5781H42.9375ZM53.5312 98.5312C54.2708 98.5312 54.974 98.4062 55.6406 98.1562C56.3177 97.8958 56.875 97.4323 57.3125 96.7656C57.7604 96.0885 58.0104 95.1302 58.0625 93.8906H58.875C58.8229 95.1719 58.5469 96.2135 58.0469 97.0156C57.5573 97.8177 56.9167 98.4062 56.125 98.7812C55.3333 99.1562 54.4688 99.3438 53.5312 99.3438C52.5938 99.3438 51.7552 99.1823 51.0156 98.8594C50.2865 98.5365 49.6719 98.0521 49.1719 97.4062C48.6719 96.75 48.2917 95.9271 48.0312 94.9375C47.7708 93.9479 47.6406 92.7865 47.6406 91.4531V89.6406C47.6406 88.3073 47.7708 87.1458 48.0312 86.1562C48.2917 85.1667 48.6719 84.349 49.1719 83.7031C49.6719 83.0573 50.2865 82.5781 51.0156 82.2656C51.7552 81.9427 52.5938 81.7812 53.5312 81.7812C54.4583 81.7812 55.3177 81.9688 56.1094 82.3438C56.901 82.7188 57.5469 83.3385 58.0469 84.2031C58.5573 85.0573 58.8333 86.2135 58.875 87.6719H58.0625C58.0208 86.3802 57.7812 85.3646 57.3438 84.625C56.9062 83.8854 56.3542 83.3594 55.6875 83.0469C55.0208 82.7344 54.3021 82.5781 53.5312 82.5781C52.6562 82.5781 51.8958 82.7292 51.25 83.0312C50.6146 83.3229 50.0885 83.7656 49.6719 84.3594C49.2552 84.9531 48.9427 85.6927 48.7344 86.5781C48.5365 87.4531 48.4375 88.474 48.4375 89.6406V91.4531C48.4375 92.6198 48.5365 93.6458 48.7344 94.5312C48.9427 95.4167 49.2552 96.1562 49.6719 96.75C50.0885 97.3438 50.6146 97.7917 51.25 98.0938C51.8958 98.3854 52.6562 98.5312 53.5312 98.5312ZM63.8281 75V99H63.0156V75H63.8281ZM73.0312 82.0938L65.9219 89.875L63.6562 92.0625L63.4062 91.5156L65.5 89.2344L71.8906 82.0938H73.0312ZM72.4219 99L65.6719 89.4688L66.1719 88.8438L73.4531 99H72.4219Z" fill="white"/>
</svg>
